<?xml version="1.0" standalone="no"?>
<!DOCTYPE svg PUBLIC "-//W3C//DTD SVG 20010904//EN"
 "http://www.w3.org/TR/2001/REC-SVG-20010904/DTD/svg10.dtd">
<svg version="1.0" xmlns="http://www.w3.org/2000/svg"
 width="1080.000000pt" height="1080.000000pt" viewBox="0 0 1080.000000 1080.000000"
 preserveAspectRatio="xMidYMid meet">
<metadata>
Created by potrace 1.14, written by Peter Selinger 2001-2017
</metadata>
<g transform="translate(0.000000,1080.000000) scale(0.100000,-0.100000)"
fill="#000000" stroke="none">
<path d="M2966 8952 c-3 -6 -15 -9 -26 -7 -11 2 -22 -1 -25 -6 -4 -5 -12 -6
-18 -2 -17 10 -40 10 -54 -1 -9 -5 -13 -4 -13 5 0 8 -6 6 -16 -7 -8 -10 -13
-14 -10 -8 3 7 0 14 -8 17 -10 4 -12 -1 -9 -16 4 -20 3 -20 -7 -4 -6 9 -18 17
-25 17 -8 0 -15 -8 -15 -17 0 -15 -2 -16 -10 -3 -9 13 -10 13 -10 0 0 -9 -3
-11 -8 -5 -10 14 -35 18 -27 5 4 -7 -3 -9 -19 -6 -14 2 -27 -1 -29 -7 -5 -15
-39 -16 -49 -2 -4 6 -8 2 -8 -9 0 -15 -3 -16 -15 -6 -13 11 -14 10 -10 -2 4
-9 0 -15 -9 -15 -8 0 -13 3 -11 7 7 11 -40 3 -66 -11 -13 -7 -32 -13 -42 -14
-11 -1 -22 -8 -27 -15 -6 -10 -9 -9 -13 1 -3 8 -6 9 -6 2 -1 -6 -9 -9 -20 -6
-10 3 -22 -1 -27 -8 -5 -9 -2 -10 10 -6 9 4 15 3 11 -2 -3 -5 -23 -8 -45 -7
-29 2 -37 0 -30 -8 6 -8 1 -12 -18 -14 -14 -1 -31 -7 -37 -14 -7 -8 -6 -9 4
-3 10 6 12 4 7 -4 -6 -9 -11 -9 -23 0 -12 10 -16 10 -24 -2 -5 -8 -9 -9 -9 -4
0 6 -4 4 -9 -4 -5 -8 -17 -16 -26 -17 -9 -1 -28 -11 -43 -21 -15 -10 -34 -18
-42 -18 -8 -1 -14 -7 -12 -13 1 -8 -5 -12 -15 -10 -11 2 -17 -2 -15 -11 2 -11
0 -12 -11 -3 -11 10 -17 9 -26 -1 -6 -8 -7 -17 -3 -21 4 -5 -2 -6 -13 -4 -12
2 -19 -2 -18 -9 2 -7 -3 -10 -11 -7 -8 3 -17 0 -22 -7 -5 -8 -3 -10 6 -4 9 5
11 4 6 -4 -6 -9 -11 -9 -22 0 -11 9 -14 8 -14 -5 0 -10 -3 -15 -8 -12 -9 5
-50 -16 -54 -29 -2 -5 -9 -9 -15 -7 -8 2 -10 -3 -6 -14 5 -13 3 -16 -10 -11
-12 4 -17 1 -17 -11 0 -15 -2 -15 -10 -2 -9 13 -14 7 -11 -12 0 -4 -10 -10
-24 -14 -14 -3 -34 -17 -44 -30 -10 -13 -22 -20 -27 -16 -5 4 -2 -2 6 -12 12
-15 12 -18 1 -12 -9 6 -20 0 -35 -16 -11 -13 -16 -17 -11 -9 6 10 0 8 -16 -4
-15 -11 -25 -23 -22 -27 2 -5 -3 -8 -13 -8 -14 0 -14 -3 -4 -16 8 -8 9 -14 4
-13 -17 3 -54 -13 -49 -21 3 -5 -6 -17 -20 -28 -13 -11 -21 -22 -17 -26 3 -4
-2 -4 -12 0 -13 5 -17 4 -12 -4 3 -6 -3 -13 -14 -17 -20 -6 -26 -20 -12 -28 4
-2 2 -2 -5 -1 -7 2 -15 -1 -18 -7 -4 -5 -11 -7 -16 -4 -5 3 -6 -2 -2 -11 5
-13 3 -15 -8 -9 -12 7 -12 6 1 -11 8 -10 11 -16 7 -13 -10 8 -67 -41 -67 -58
0 -7 -9 -17 -20 -23 -11 -6 -18 -15 -15 -21 4 -5 1 -9 -5 -9 -6 0 -15 -12 -20
-26 -6 -14 -15 -22 -21 -18 -7 4 -7 -2 1 -17 7 -13 9 -21 5 -17 -7 7 -28 -11
-55 -46 -13 -18 -13 -19 0 -12 8 4 4 -1 -10 -12 -14 -12 -22 -24 -18 -28 4 -3
0 -13 -8 -21 -8 -9 -13 -22 -9 -31 5 -13 3 -13 -12 -1 -10 7 -15 9 -11 5 4 -5
3 -15 -4 -23 -9 -11 -7 -12 8 -8 12 4 9 0 -6 -9 -14 -8 -20 -16 -15 -16 6 0 2
-5 -7 -10 -9 -6 -15 -19 -13 -30 2 -12 -4 -24 -16 -30 -11 -6 -17 -15 -13 -21
3 -5 0 -16 -6 -24 -7 -8 -9 -15 -4 -15 4 0 0 -6 -9 -12 -9 -7 -18 -28 -19 -47
-1 -18 -8 -35 -15 -38 -6 -3 -9 -12 -6 -20 4 -11 2 -14 -5 -9 -8 5 -12 -1 -12
-18 0 -14 -4 -28 -10 -31 -5 -3 -10 -12 -10 -18 0 -7 4 -6 10 3 7 10 10 11 10
2 0 -7 -6 -15 -14 -18 -7 -3 -12 -16 -10 -30 1 -13 -2 -22 -7 -18 -8 5 -13
-10 -10 -30 1 -4 -3 -14 -9 -21 -8 -10 -7 -14 2 -18 8 -3 5 -6 -6 -6 -15 -1
-17 -4 -9 -12 9 -9 8 -18 -4 -35 -12 -19 -13 -24 -2 -24 9 0 10 -3 4 -8 -15
-11 -41 -47 -29 -39 8 5 11 -4 8 -26 -1 -17 -3 -35 -3 -39 -1 -5 -9 -8 -18 -8
-15 0 -14 -2 3 -16 10 -8 13 -13 7 -9 -7 3 -14 0 -14 -7 -1 -7 -2 -20 -3 -28
-1 -8 3 -21 9 -29 7 -11 7 -13 -3 -7 -7 4 -12 1 -12 -8 0 -9 6 -16 13 -16 9 0
9 -2 0 -8 -17 -11 -21 -78 -5 -74 8 1 11 -2 7 -8 -3 -6 -10 -8 -15 -5 -4 3
-10 -2 -14 -10 -3 -8 -1 -17 5 -21 6 -4 6 -11 -2 -20 -9 -11 -9 -14 0 -14 7 0
9 -5 5 -12 -11 -17 -11 -78 -1 -85 4 -2 2 -11 -4 -20 -10 -12 -10 -16 2 -24
11 -7 11 -9 0 -9 -10 0 -11 -3 -2 -13 8 -10 7 -17 -1 -25 -9 -9 -9 -12 0 -12
10 0 10 -5 2 -20 -7 -13 -7 -20 -1 -20 6 0 8 -7 4 -15 -3 -9 3 -25 13 -36 17
-19 17 -20 -2 -13 -15 5 -17 4 -7 -6 6 -7 9 -19 6 -28 -4 -9 -2 -13 4 -9 12 8
12 -11 0 -30 -4 -6 -1 -14 5 -16 10 -4 10 -6 1 -6 -20 -1 -15 -21 5 -22 14 0
14 -2 -3 -9 -11 -5 -14 -9 -7 -9 7 -1 10 -5 7 -11 -3 -5 -1 -10 5 -10 6 0 9
-4 6 -9 -4 -5 -2 -21 4 -36 7 -19 7 -24 -1 -19 -8 4 -8 1 -1 -12 5 -11 7 -25
5 -32 -3 -8 1 -10 13 -5 12 4 15 3 10 -5 -15 -25 -14 -51 5 -68 14 -13 16 -20
8 -31 -9 -10 -8 -13 0 -13 7 0 10 -4 7 -9 -9 -14 5 -42 18 -34 6 3 8 3 4 -2
-4 -4 -2 -15 5 -23 8 -11 8 -14 0 -9 -6 4 -14 3 -18 -3 -3 -5 -1 -10 5 -10 6
0 8 -5 4 -12 -5 -8 0 -7 11 2 17 14 18 14 6 -9 -7 -13 -8 -21 -3 -17 6 4 11
-2 12 -11 1 -47 5 -61 14 -56 5 4 7 -1 3 -10 -3 -9 -3 -16 1 -16 20 3 23 -3
11 -18 -10 -11 -10 -14 -1 -9 8 5 12 -1 12 -19 0 -15 4 -24 10 -20 6 4 10 -5
10 -20 0 -14 4 -24 9 -21 5 3 12 -10 15 -30 4 -19 14 -38 21 -41 8 -3 13 -9
10 -13 -3 -5 0 -15 7 -22 7 -8 18 -23 25 -33 6 -11 16 -19 22 -18 6 2 8 -4 4
-13 -5 -13 -7 -13 -14 -2 -6 9 -9 9 -9 1 0 -6 9 -18 20 -26 12 -8 20 -21 18
-28 -2 -8 4 -13 14 -13 11 1 15 -5 13 -17 -2 -12 2 -19 11 -19 8 0 14 -5 14
-11 0 -5 -5 -7 -12 -3 -7 4 -8 3 -4 -4 4 -7 15 -12 24 -13 11 0 12 -2 4 -6 -9
-3 -7 -9 6 -21 10 -10 11 -12 3 -7 -11 7 -13 7 -7 -3 4 -7 22 -19 39 -27 18
-9 24 -13 15 -10 -10 2 -18 2 -18 0 0 -9 52 -55 62 -55 6 0 5 -7 -3 -17 -8 -9
-9 -14 -4 -12 12 7 46 -26 38 -35 -4 -3 -2 -6 3 -6 6 0 15 5 22 12 9 9 11 6 7
-11 -5 -29 4 -53 18 -44 6 4 8 0 4 -11 -5 -12 0 -19 18 -26 14 -5 25 -17 25
-26 0 -10 5 -14 16 -10 8 3 12 2 9 -4 -3 -6 -1 -10 5 -10 6 0 8 -4 5 -10 -5
-9 15 -15 37 -11 4 0 5 -6 2 -14 -4 -9 0 -15 10 -15 9 0 16 -8 16 -20 0 -11 4
-20 10 -20 5 0 7 8 3 18 -5 14 -3 13 10 -3 9 -11 17 -26 17 -32 0 -7 3 -13 8
-14 28 -3 44 -10 68 -32 15 -14 32 -23 38 -20 6 4 5 -1 -3 -10 -12 -16 -12
-17 5 -11 10 4 16 4 12 0 -12 -13 45 -56 59 -44 9 7 11 4 8 -12 -2 -13 -2 -20
2 -16 3 3 21 -5 39 -19 27 -21 32 -22 27 -8 -6 15 -4 16 9 5 14 -11 17 -8 26
18 6 17 18 30 28 30 14 0 14 3 4 16 -11 12 -11 15 1 12 8 -2 13 3 12 10 -2 6
1 12 6 12 5 0 12 -6 15 -12 2 -7 4 -2 3 12 -1 16 3 24 11 22 8 -1 11 2 7 8 -3
5 1 13 9 16 9 3 16 10 16 16 0 5 -5 6 -11 3 -6 -4 -5 2 3 14 7 12 16 21 20 21
4 0 5 10 3 22 -4 16 -2 19 7 10 17 -17 24 -15 25 9 1 12 7 27 14 33 9 8 10 7
4 -3 -6 -10 -4 -12 4 -7 9 6 9 11 -1 24 -10 12 -10 14 0 8 11 -6 17 4 13 26 0
4 7 4 16 1 12 -5 15 -2 10 10 -3 9 -2 17 4 17 6 0 7 6 3 13 -5 8 -2 7 9 -2 15
-12 17 -12 12 2 -4 8 -1 18 4 22 6 3 9 11 6 16 -3 5 1 6 9 3 11 -4 14 1 12 19
-3 21 1 25 17 21 15 -2 18 -1 10 7 -8 8 -5 18 13 34 25 23 33 52 12 39 -8 -4
-10 -3 -5 2 8 9 12 10 39 13 6 0 8 4 5 8 -4 3 1 12 11 20 9 8 11 12 5 8 -7 -3
-13 -1 -13 4 0 6 5 11 11 11 5 0 8 4 5 9 -3 4 4 17 17 27 l22 19 -18 -22 c-12
-14 -15 -23 -7 -28 6 -3 9 -3 8 2 -5 14 28 53 38 45 4 -4 3 0 -3 8 -8 11 -8
18 2 27 7 6 15 10 18 7 3 -3 4 3 4 13 -1 10 4 17 11 15 10 -2 10 2 2 18 -8 16
-8 20 2 18 7 -2 12 2 11 9 -2 7 4 10 13 6 13 -5 15 -1 10 18 -3 13 -3 18 0 11
3 -6 10 -9 15 -6 6 3 5 12 -3 22 -11 13 -11 14 1 7 11 -6 13 -4 7 10 -5 15 -4
16 9 5 13 -10 15 -9 15 9 0 11 5 21 10 21 6 0 10 7 10 15 0 9 7 18 15 21 8 4
15 13 15 21 0 9 5 11 13 7 7 -5 6 0 -3 11 -9 11 -10 16 -2 11 7 -4 12 -2 12 4
0 6 5 8 11 5 6 -4 9 0 7 11 -2 10 2 19 9 19 15 0 30 15 15 15 -7 0 -12 5 -12
10 0 6 6 9 13 8 7 -2 12 6 11 19 0 19 2 21 14 10 13 -10 14 -9 8 9 -4 14 1 26
16 40 13 11 26 19 30 19 3 0 10 4 15 9 4 5 3 6 -4 2 -6 -3 -14 -2 -17 3 -3 5
3 11 14 14 11 3 19 11 18 19 -2 7 4 12 12 10 8 -2 12 0 8 4 -4 4 0 13 10 21
10 9 11 11 2 7 -12 -7 -13 -5 -3 8 7 8 10 18 6 21 -3 4 1 7 11 7 13 0 9 7 -14
30 -17 17 -35 28 -41 25 -5 -4 -9 3 -9 13 0 11 -7 23 -16 26 -15 6 -15 4 -3
-11 13 -16 12 -17 -3 -4 -10 7 -18 18 -18 23 0 5 -10 19 -21 31 -12 12 -18 15
-14 7 8 -13 7 -13 -8 -1 -14 11 -15 16 -5 29 7 9 8 13 2 9 -6 -3 -17 5 -24 18
-7 14 -19 25 -26 25 -8 0 -11 9 -9 21 4 17 2 19 -11 8 -12 -10 -13 -9 -8 6 6
14 4 16 -7 10 -8 -4 -11 -5 -7 0 4 4 -1 18 -11 32 -11 13 -18 34 -17 48 2 13
-1 22 -5 19 -10 -6 -13 9 -9 41 1 15 -1 17 -12 8 -11 -9 -13 -2 -11 38 1 27
-2 49 -7 49 -6 0 -10 8 -10 18 0 10 -6 24 -12 31 -10 11 -10 12 -1 7 9 -5 12
1 11 18 -1 15 -7 26 -13 26 -5 0 -3 5 5 10 12 7 13 13 3 28 -9 15 -9 22 0 31
6 6 8 11 4 11 -4 0 -2 10 4 23 7 12 13 36 13 52 1 17 8 36 16 43 8 8 9 11 3 7
-7 -3 -13 -2 -13 3 0 6 7 13 16 16 8 3 12 11 9 16 -4 6 -1 17 5 25 7 8 10 24
7 36 -5 17 -3 18 11 7 9 -7 14 -8 10 -4 -4 5 0 15 10 23 16 12 16 13 -3 7 -15
-4 -13 -1 5 10 14 8 19 15 13 16 -8 0 -5 8 7 20 12 12 18 26 14 32 -4 6 -3 8
3 5 6 -4 14 0 17 9 3 8 10 13 15 10 4 -3 7 6 5 19 -2 26 11 34 19 13 4 -10 6
-10 6 0 1 7 6 10 12 6 7 -4 7 2 -1 17 -7 13 -9 21 -5 17 5 -4 15 -2 23 5 13
10 15 9 8 -3 -4 -8 0 -6 8 4 9 11 16 23 16 27 0 4 11 10 25 13 14 4 25 13 25
21 0 14 11 19 38 16 6 -1 12 3 12 10 0 7 9 9 23 6 22 -6 22 -6 2 10 -11 8 -14
13 -5 11 8 -3 25 1 38 8 14 7 30 10 38 7 18 -7 40 7 25 17 -6 3 13 6 43 5 39
0 52 2 46 10 -7 8 0 10 22 7 24 -4 29 -2 23 9 -8 12 -6 12 8 0 9 -7 24 -11 32
-7 8 3 15 1 15 -4 0 -5 7 -7 15 -4 8 4 12 10 9 16 -3 5 3 4 14 -3 17 -11 24
-10 38 2 11 9 15 9 10 2 -5 -9 1 -13 21 -13 16 0 34 -5 41 -12 7 -7 25 -13 40
-13 18 0 26 -6 24 -15 -1 -10 3 -8 13 4 8 11 15 14 15 7 0 -7 5 -9 12 -5 7 5
9 2 6 -7 -4 -10 2 -15 20 -17 14 -1 33 -9 42 -17 9 -8 20 -12 24 -8 4 5 7 4 6
-2 -4 -20 1 -30 8 -17 5 7 16 10 25 6 9 -3 14 -10 11 -15 -3 -5 -1 -9 5 -9 14
0 32 35 23 46 -4 5 2 2 12 -6 18 -14 19 -14 7 8 -6 12 -8 22 -4 21 19 -3 34 2
29 10 -3 5 1 14 9 21 8 7 12 16 9 21 -3 5 2 12 10 15 9 3 16 15 16 26 0 10 5
16 10 13 6 -3 10 0 10 8 0 8 7 18 16 21 9 4 14 9 11 13 -4 3 1 12 11 20 11 10
12 12 2 8 -12 -5 -12 -4 1 7 9 7 18 18 20 23 2 6 7 9 11 8 4 -2 5 4 2 11 -3 8
4 19 16 26 11 6 18 15 15 21 -4 5 -1 9 5 9 6 0 8 5 5 11 -4 6 2 13 13 16 13 3
18 11 15 19 -3 8 0 14 7 14 6 0 8 5 5 10 -3 6 -1 10 5 10 6 0 8 5 5 10 -3 6 0
10 7 10 7 0 19 9 26 21 11 17 11 20 0 14 -7 -3 -4 1 7 10 11 9 19 20 18 25 -2
5 6 14 17 20 11 6 17 18 15 30 -2 11 1 19 8 17 7 -1 11 5 9 14 -1 9 6 23 15
30 16 13 17 12 4 -4 -12 -15 -12 -17 3 -11 11 4 16 14 13 25 -3 10 2 20 10 23
9 4 13 13 9 22 -4 10 -2 13 6 8 8 -5 9 -2 4 11 -6 16 -4 16 11 4 11 -9 14 -10
9 -1 -4 7 0 19 8 28 9 9 13 21 9 27 -4 7 -1 7 9 -1 14 -11 16 -10 11 7 -3 13
-1 21 7 21 7 0 10 8 7 20 -4 16 -2 18 13 10 14 -8 17 -5 14 16 -2 19 1 24 12
20 13 -5 18 7 17 41 0 6 5 9 12 7 7 -3 16 0 21 7 5 8 3 10 -5 4 -8 -4 -7 2 3
17 9 14 13 29 9 33 -5 5 -1 4 8 -3 13 -9 16 -9 17 3 1 8 3 22 4 30 1 11 5 12
14 4 10 -8 12 -6 9 10 -2 14 1 21 11 21 8 0 12 5 9 10 -4 6 -1 17 5 25 6 8 9
19 5 25 -4 6 -3 10 2 9 21 -4 33 2 33 17 0 8 4 12 10 9 6 -3 7 1 4 9 -4 11 0
16 11 16 9 0 13 5 9 11 -4 7 4 20 17 31 13 11 19 17 13 14 -6 -3 -11 1 -11 8
0 8 8 12 21 9 17 -4 18 -3 6 6 -14 10 -7 16 13 12 5 -1 5 4 1 10 -3 6 0 15 7
20 10 6 7 9 -11 10 -14 0 -19 3 -12 6 6 2 12 9 12 14 0 6 -4 7 -10 4 -5 -3
-10 -1 -10 5 0 6 -4 8 -10 5 -5 -3 -10 -1 -10 5 0 7 -8 9 -20 5 -11 -4 -20 -3
-19 2 1 4 1 15 0 23 -1 13 -2 13 -11 0 -7 -11 -10 -11 -10 -2 0 7 -5 10 -10 7
-6 -4 -9 -1 -8 7 2 7 -3 12 -11 10 -8 -2 -11 3 -8 11 4 10 -2 13 -19 11 -13
-1 -24 3 -24 10 0 6 -12 13 -26 14 -29 2 -57 25 -46 38 4 5 -2 2 -12 -6 -17
-13 -18 -13 -11 -1 6 11 4 13 -8 8 -11 -4 -21 0 -28 12 -8 12 -20 16 -37 13
-17 -3 -23 -1 -18 7 8 12 6 12 -38 15 -16 0 -31 7 -34 14 -2 6 -8 10 -13 6 -5
-3 -9 -1 -9 4 0 5 -9 12 -20 15 -11 3 -18 1 -14 -4 3 -5 -2 -6 -10 -3 -9 3
-16 11 -16 18 0 6 -5 4 -10 -4 -8 -13 -10 -12 -10 3 0 9 -5 17 -11 17 -5 0 -7
-6 -3 -12 6 -9 3 -9 -9 0 -9 8 -21 11 -27 7 -5 -3 -10 1 -10 9 0 10 -6 13 -15
10 -8 -4 -22 -1 -30 6 -10 9 -15 9 -15 1 0 -15 -16 -14 -32 2 -7 8 -21 13 -31
11 -9 -1 -17 2 -17 7 0 6 -8 5 -20 -1 -16 -8 -20 -8 -18 2 2 8 -5 12 -17 11
-11 -1 -23 4 -27 10 -6 9 -11 8 -18 -3 -8 -12 -10 -12 -10 -1 0 11 -3 11 -17
0 -11 -10 -14 -10 -9 -1 4 6 2 12 -3 12 -6 0 -11 -6 -11 -12 0 -8 -3 -9 -8 -3
-4 6 -16 17 -26 25 -18 14 -19 13 -13 -3 6 -15 4 -16 -13 -7 -11 6 -26 8 -32
4 -7 -4 -8 -3 -4 4 9 15 1 15 -24 2 -13 -7 -21 -7 -25 0 -5 8 -12 7 -23 -2
-12 -10 -14 -10 -8 0 4 7 1 12 -8 12 -9 0 -16 -6 -16 -12 0 -9 -3 -9 -8 -3 -9
13 -42 13 -61 1 -10 -6 -12 -5 -7 2 4 8 -1 12 -13 13 -70 4 -81 3 -77 -8 3 -7
-1 -10 -9 -6 -8 3 -12 10 -9 17 3 6 -1 3 -9 -7 -11 -14 -16 -15 -20 -5 -4 10
-6 10 -6 -1 -1 -11 -4 -10 -14 4 -9 12 -16 14 -21 7z m149 -12 c3 -6 -1 -7 -9
-4 -18 7 -21 14 -7 14 6 0 13 -4 16 -10z m-1405 -480 c-6 -11 -13 -20 -16 -20
-2 0 0 9 6 20 6 11 13 20 16 20 2 0 0 -9 -6 -20z m1540 -1054 c0 -3 -4 -8 -10
-11 -5 -3 -10 -1 -10 4 0 6 5 11 10 11 6 0 10 -2 10 -4z m-1466 -2452 c3 -8 2
-12 -4 -9 -6 3 -10 10 -10 16 0 14 7 11 14 -7z"/>
<path d="M5398 8836 c-10 -7 -14 -17 -10 -21 4 -5 0 -6 -9 -2 -14 4 -15 -1 -9
-34 5 -25 3 -40 -4 -43 -6 -2 -6 -5 -1 -5 11 -1 12 -132 1 -150 -4 -6 -2 -11
5 -11 8 0 9 -3 0 -13 -6 -8 -8 -17 -4 -20 9 -10 9 -67 0 -67 -5 0 -5 -5 -1
-11 11 -19 5 -141 -9 -158 -8 -10 -9 -13 0 -8 6 4 14 3 18 -3 3 -5 0 -10 -7
-10 -9 0 -9 -3 2 -10 8 -5 10 -10 5 -10 -7 0 -9 -15 -7 -35 3 -25 0 -35 -9
-35 -12 0 -11 -2 0 -9 18 -11 16 -162 -2 -173 -9 -6 -9 -8 1 -8 6 0 12 -11 12
-25 0 -14 -6 -25 -12 -25 -7 0 -5 -5 6 -11 15 -9 16 -13 5 -20 -12 -7 -12 -9
0 -9 11 0 10 -4 -5 -16 -10 -8 -14 -13 -7 -10 6 4 14 2 18 -4 3 -5 2 -10 -4
-10 -6 0 -6 -11 -1 -30 7 -25 6 -30 -8 -30 -14 0 -14 -2 -3 -9 8 -5 12 -18 8
-29 -2 -12 0 -23 7 -26 7 -3 6 -5 -3 -5 -11 -1 -11 -4 0 -18 12 -15 12 -16 -5
-10 -14 6 -16 4 -9 -5 20 -25 22 -58 5 -58 -13 0 -14 -2 -4 -9 8 -4 12 -19 11
-32 -2 -13 1 -30 5 -38 7 -11 5 -13 -10 -8 -18 7 -18 7 0 -8 11 -8 15 -15 9
-15 -7 0 -8 -12 -3 -35 4 -19 5 -35 1 -35 -8 0 -5 -114 3 -136 5 -12 2 -15
-11 -10 -15 5 -15 4 1 -9 11 -8 15 -15 9 -15 -7 0 -8 -12 -3 -35 4 -19 5 -35
1 -35 -8 0 -5 -114 3 -136 5 -12 2 -15 -11 -10 -15 5 -15 4 1 -9 11 -8 15 -15
9 -15 -7 0 -8 -12 -3 -35 4 -19 4 -35 0 -35 -11 0 -7 -33 5 -42 6 -4 1 -8 -9
-8 -20 0 -20 0 0 -15 10 -8 15 -15 9 -15 -13 0 -13 -120 -1 -120 6 0 1 -7 -10
-16 -10 -8 -14 -13 -7 -10 6 4 14 2 18 -4 3 -5 2 -10 -4 -10 -6 0 -6 -11 -1
-30 7 -25 6 -30 -8 -30 -14 0 -14 -2 -3 -9 8 -5 12 -18 8 -30 -3 -12 -1 -24 5
-27 5 -3 1 -12 -9 -21 -10 -8 -13 -12 -7 -9 8 4 13 -9 16 -39 2 -25 1 -45 -2
-45 -7 0 -4 -116 4 -136 5 -12 2 -15 -11 -10 -15 5 -15 4 1 -9 11 -8 15 -15 9
-15 -7 0 -8 -12 -3 -35 4 -19 5 -35 1 -35 -8 0 -5 -119 3 -127 3 -3 -2 -12
-12 -20 -9 -8 -12 -12 -6 -9 8 4 13 -9 16 -39 2 -25 1 -45 -2 -45 -3 0 -6 -9
-6 -20 0 -11 5 -20 10 -20 5 0 1 -7 -10 -16 -10 -8 -14 -13 -7 -10 6 4 14 2
18 -4 3 -5 2 -10 -4 -10 -6 0 -6 -11 -1 -30 7 -25 6 -30 -8 -30 -12 0 -13 -3
-5 -8 8 -5 12 -35 11 -83 0 -42 2 -82 6 -88 4 -6 3 -11 -2 -11 -5 0 -9 -7 -9
-15 0 -8 5 -15 11 -15 5 0 1 -7 -10 -16 -10 -8 -14 -13 -7 -10 6 4 14 2 18 -4
3 -5 2 -10 -4 -10 -5 0 -6 -11 -2 -27 5 -20 3 -32 -8 -41 -9 -8 -11 -11 -4 -7
9 4 12 -15 11 -73 0 -44 2 -84 6 -91 4 -6 3 -11 -3 -11 -10 0 -9 -19 2 -37 5
-7 4 -13 -1 -13 -4 0 -6 -22 -2 -50 4 -27 4 -50 1 -50 -8 0 -5 -119 3 -127 3
-3 -2 -12 -12 -20 -9 -8 -12 -12 -6 -9 8 4 13 -9 16 -39 2 -25 1 -45 -2 -45
-7 0 -3 -116 4 -129 4 -6 2 -11 -4 -11 -8 0 -8 -6 0 -20 6 -12 7 -20 1 -20 -6
0 -6 -11 -1 -30 5 -16 5 -30 1 -30 -3 0 -7 -9 -7 -20 0 -11 5 -20 10 -20 5 0
1 -7 -10 -16 -10 -8 -14 -13 -7 -10 6 4 14 2 18 -4 3 -5 2 -10 -4 -10 -6 0 -6
-11 -1 -30 7 -25 6 -30 -8 -30 -12 0 -13 -3 -5 -8 8 -5 12 -35 11 -83 0 -42 2
-82 6 -88 4 -6 3 -11 -3 -11 -10 0 -9 -25 2 -36 4 -4 -1 -13 -11 -21 -9 -8
-12 -12 -6 -9 8 4 13 -9 16 -39 2 -25 1 -45 -2 -45 -7 0 -4 -120 4 -127 3 -3
-2 -12 -12 -20 -9 -8 -12 -12 -6 -9 8 4 13 -9 16 -39 2 -25 1 -45 -2 -45 -7 0
-3 -116 4 -129 4 -6 2 -11 -4 -11 -8 0 -8 -6 0 -20 6 -12 7 -20 1 -20 -6 0 -6
-11 -1 -30 5 -16 5 -30 1 -30 -3 0 -7 -9 -7 -20 0 -11 5 -20 10 -20 5 0 1 -7
-10 -16 -10 -8 -14 -13 -7 -10 6 4 14 2 18 -4 3 -5 2 -10 -4 -10 -5 0 -6 -11
-2 -28 5 -19 3 -31 -8 -40 -9 -8 -11 -11 -4 -7 9 4 12 -15 11 -73 0 -44 2 -84
6 -91 4 -6 3 -11 -3 -11 -10 0 -9 -25 2 -36 4 -4 -1 -13 -11 -21 -9 -8 -12
-12 -6 -9 8 4 13 -9 16 -39 2 -25 1 -45 -2 -45 -7 0 -4 -116 4 -136 5 -12 2
-15 -11 -10 -15 5 -15 4 1 -9 11 -8 15 -15 9 -15 -7 0 -8 -12 -3 -35 4 -19 5
-35 1 -35 -3 0 -4 -25 -3 -55 3 -36 -1 -61 -10 -72 -8 -10 -8 -14 -1 -10 15 9
24 -5 14 -22 -5 -7 -5 -28 -1 -47 4 -19 5 -34 1 -34 -4 0 -5 -14 -3 -31 4 -25
2 -30 -9 -24 -8 5 -5 -1 5 -13 14 -17 16 -22 5 -22 -11 0 -11 -2 1 -10 13 -9
13 -10 0 -10 -13 0 -13 -1 0 -10 11 -7 11 -10 2 -10 -10 0 -10 -5 -2 -20 7
-12 7 -20 1 -20 -9 0 -6 -45 5 -62 3 -4 -3 -8 -13 -8 -11 0 -14 -3 -7 -8 11
-6 20 -56 14 -74 -6 -20 -6 -34 2 -50 6 -12 5 -18 -4 -18 -9 0 -9 -3 2 -10 13
-8 12 -10 -4 -10 -20 0 -20 0 0 -15 10 -8 14 -15 7 -15 -8 0 -9 -9 -3 -30 5
-16 6 -30 2 -30 -4 0 -6 -20 -4 -45 3 -27 -1 -52 -9 -61 -7 -8 -8 -14 -3 -13
20 3 23 -2 14 -26 -7 -18 -6 -25 3 -26 6 0 3 -4 -8 -9 -11 -5 -15 -9 -9 -9 13
-1 26 -51 13 -51 -5 0 -5 -10 0 -22 4 -13 6 -29 3 -37 -3 -8 0 -11 7 -7 6 4
11 1 11 -6 0 -9 3 -9 10 2 5 8 10 10 10 4 0 -12 58 -13 77 -1 6 4 15 3 18 -3
5 -8 12 -7 23 2 12 10 14 10 8 1 -8 -14 6 -18 18 -6 11 12 37 12 29 1 -4 -7 1
-9 13 -6 45 13 49 13 46 -2 -1 -10 2 -9 13 4 8 11 15 14 15 8 0 -7 5 -12 11
-12 5 0 7 6 3 13 -6 9 -4 9 7 2 16 -12 39 -13 56 -2 7 4 16 0 22 -10 10 -17
10 -17 11 2 0 11 4 16 8 10 9 -12 62 -13 81 -1 10 7 12 6 6 -4 -6 -10 -4 -12
7 -7 9 3 21 0 27 -6 9 -9 10 -7 5 8 -6 16 -5 18 7 9 16 -12 29 -12 46 -1 6 4
14 3 18 -3 3 -5 11 -10 16 -10 6 0 8 4 5 8 -3 5 1 9 9 9 8 0 12 -4 9 -9 -3 -4
5 -6 18 -4 13 2 29 -2 37 -8 11 -8 13 -8 8 0 -4 7 0 15 9 18 8 3 12 2 9 -4 -7
-12 23 -9 44 4 10 6 12 5 7 -3 -6 -8 1 -10 25 -6 18 3 37 9 42 12 7 4 8 -1 3
-12 -5 -14 -3 -15 6 -8 7 6 24 10 38 9 14 -1 31 3 39 8 11 8 13 8 8 -1 -8 -13
30 -12 52 2 9 5 12 4 8 -2 -4 -6 0 -13 8 -17 8 -3 17 0 21 6 5 7 2 8 -6 3 -9
-5 -11 -4 -6 4 5 7 13 8 19 4 15 -11 38 -10 56 1 9 6 12 5 7 -2 -4 -7 1 -10
14 -9 11 1 20 4 20 7 0 3 9 6 20 6 13 0 19 -5 15 -14 -3 -8 -1 -10 8 -5 6 4
23 9 37 9 14 1 34 5 44 9 16 7 18 5 13 -9 -5 -12 -3 -15 6 -9 6 4 14 8 17 9
25 5 37 18 34 40 -1 14 -5 28 -8 31 -3 3 -1 14 5 24 7 14 6 19 -2 19 -8 0 -8
5 2 16 7 9 9 18 3 22 -13 10 -17 35 -4 27 5 -3 10 -1 10 4 0 6 -5 11 -11 11
-8 0 -7 6 2 17 12 15 12 16 -1 8 -13 -8 -13 -7 -1 9 12 14 12 19 2 26 -11 6
-11 9 0 13 12 5 12 6 0 6 -11 1 -11 4 0 18 11 12 11 17 2 20 -8 3 -9 12 -3 29
6 15 6 33 0 48 -6 17 -5 26 3 30 9 3 9 7 1 13 -7 4 -8 17 -4 28 4 11 4 32 0
46 -4 15 -4 32 1 40 4 7 4 19 -2 25 -7 8 -6 14 1 19 8 5 7 11 -2 23 -9 10 -9
13 -1 9 8 -5 11 0 10 13 -1 11 -5 20 -10 20 -5 0 -5 6 2 13 8 10 7 17 -2 27
-9 9 -9 11 0 6 8 -4 11 1 10 14 -1 11 -5 20 -10 20 -5 0 -5 6 2 13 8 10 7 17
-2 27 -9 10 -9 11 1 6 6 -4 12 -2 12 3 0 6 -5 11 -10 11 -7 0 -7 6 0 20 8 15
8 20 -2 20 -9 0 -9 3 0 12 7 7 8 17 2 28 -5 9 -5 22 1 31 12 19 11 32 -2 23
-8 -4 -8 0 0 15 7 12 9 27 4 34 -10 16 -11 47 -1 41 4 -3 8 0 8 5 0 6 -5 11
-10 11 -7 0 -7 6 0 20 8 15 8 20 -1 20 -8 0 -8 4 -1 13 7 8 7 18 2 27 -5 9 -5
19 1 26 7 8 6 14 -1 19 -8 5 -8 11 1 21 9 11 8 14 -2 14 -10 0 -10 3 -2 11 8
8 8 20 2 36 -6 16 -5 22 1 18 6 -3 10 -1 10 4 0 6 -5 11 -10 11 -7 0 -7 6 0
20 8 15 8 20 -1 20 -8 0 -8 4 -1 13 7 8 7 18 2 27 -5 9 -5 19 1 26 7 8 6 14
-1 19 -6 3 -7 12 -3 18 12 19 12 37 1 37 -7 0 -7 5 1 13 8 10 7 17 -2 27 -9 9
-9 11 0 6 8 -4 11 1 10 14 -1 11 -5 20 -10 20 -5 0 -5 6 2 13 7 10 7 17 0 24
-7 7 -7 13 -1 17 7 4 7 17 2 35 -4 15 -4 34 1 42 4 7 4 19 -2 25 -7 8 -6 14 1
19 8 5 7 11 -2 23 -10 12 -10 14 0 8 6 -4 12 -2 12 3 0 6 -5 11 -10 11 -7 0
-7 7 1 21 8 16 8 20 -1 14 -9 -6 -9 -3 -2 12 6 11 7 25 2 33 -5 9 -5 19 1 26
7 8 6 14 -1 19 -8 5 -8 11 1 21 9 11 8 14 -2 14 -10 0 -10 3 -1 12 13 13 16
32 4 24 -4 -2 -8 4 -8 14 0 10 4 16 8 14 4 -3 8 0 8 5 0 6 -5 11 -10 11 -7 0
-7 6 -2 18 5 9 8 24 6 32 -1 8 -5 25 -8 38 -3 13 -1 20 5 17 5 -4 9 -1 9 4 0
6 -5 11 -11 11 -5 0 -7 5 -3 11 10 17 11 109 1 109 -5 0 -3 8 4 17 10 11 10
14 2 9 -7 -4 -13 -3 -13 3 0 5 6 12 13 14 9 4 9 8 -2 15 -12 9 -12 13 -2 26
11 13 11 16 0 16 -11 0 -11 2 1 10 13 9 13 10 0 10 -13 0 -13 1 0 10 12 8 12
10 1 10 -11 0 -11 3 0 16 10 13 10 17 0 24 -8 5 -10 13 -5 21 10 17 12 79 2
79 -4 0 -8 5 -8 11 0 5 5 7 12 3 7 -5 8 -3 2 7 -13 21 -14 39 -2 39 6 0 5 6
-2 15 -7 8 -9 15 -5 15 4 0 2 7 -5 15 -10 12 -9 16 4 21 15 6 15 7 0 19 -13 9
-14 14 -4 20 10 6 9 9 -1 16 -11 6 -11 11 -1 21 13 13 17 32 4 24 -5 -3 -9 1
-9 9 0 8 5 11 10 8 5 -3 7 0 5 8 -3 8 -10 13 -15 12 -5 -1 -10 4 -10 11 0 7 6
13 13 13 7 0 10 -5 7 -10 -3 -6 -1 -7 5 -3 6 4 9 13 6 21 -4 8 -10 12 -15 9
-12 -7 2 29 15 39 7 6 4 7 -6 3 -10 -3 -20 -1 -23 4 -4 6 1 10 11 10 13 0 14
3 5 14 -9 11 -9 15 1 19 9 4 9 6 1 6 -8 1 -9 10 -3 29 4 16 4 35 1 43 -13 25
-6 51 17 67 21 14 22 13 16 -3 -5 -11 -3 -16 2 -12 6 3 11 -4 11 -16 3 -47 10
-78 21 -89 7 -7 12 -23 12 -36 0 -14 4 -21 11 -16 8 5 8 1 0 -14 -7 -14 -8
-23 -1 -27 6 -4 8 -11 4 -16 -3 -5 0 -8 8 -7 7 2 12 -3 11 -9 -2 -7 3 -13 10
-13 8 0 7 -3 -3 -10 -12 -8 -12 -10 2 -15 9 -4 14 -13 11 -21 -3 -8 0 -14 6
-14 6 0 8 -7 4 -16 -3 -9 0 -20 8 -25 11 -7 11 -9 1 -9 -7 0 -11 -4 -7 -10 3
-5 13 -7 23 -4 11 4 13 3 5 -3 -13 -9 -14 -53 -1 -53 4 0 8 -9 8 -20 0 -11 6
-20 13 -20 8 0 7 -4 -3 -10 -11 -7 -11 -10 -2 -10 7 0 10 -4 7 -10 -3 -5 2
-10 12 -10 10 0 14 -4 8 -8 -14 -10 -17 -32 -4 -32 6 0 9 -9 6 -20 -4 -14 0
-20 11 -20 10 0 13 -3 7 -8 -14 -10 -12 -41 4 -51 7 -5 10 -14 7 -20 -4 -6 -2
-11 4 -11 6 0 9 -4 5 -9 -3 -5 2 -17 11 -25 11 -12 12 -16 2 -16 -10 0 -10 -2
1 -9 9 -6 10 -11 3 -15 -15 -9 -4 -36 12 -30 9 3 12 -6 11 -31 0 -24 3 -34 11
-31 7 3 11 -3 9 -12 -1 -9 3 -23 9 -31 8 -11 8 -13 -1 -7 -7 4 -13 3 -13 -3 0
-5 6 -16 13 -23 6 -7 14 -24 16 -38 1 -14 8 -28 13 -31 6 -4 8 -14 5 -23 -4
-10 -1 -16 8 -16 8 0 15 -5 15 -11 0 -5 -4 -8 -9 -5 -8 5 -8 -17 0 -34 3 -7 7
-23 8 -37 0 -7 7 -13 15 -13 9 0 12 -7 9 -20 -3 -11 -1 -20 5 -20 5 0 13 -7
16 -16 3 -8 2 -13 -3 -10 -5 3 -11 -1 -14 -9 -4 -9 -1 -12 9 -8 10 4 12 0 7
-13 -5 -13 -3 -15 8 -9 11 6 12 5 2 -6 -7 -7 -13 -18 -13 -24 0 -5 5 -3 10 5
8 12 10 11 10 -7 0 -13 5 -23 11 -23 8 0 7 -6 -2 -17 -12 -15 -12 -16 6 -9 11
4 16 4 12 0 -4 -4 -1 -14 6 -22 10 -13 9 -14 -2 -7 -11 6 -13 4 -8 -9 4 -10 7
-20 7 -22 0 -3 5 -2 11 2 8 4 8 0 0 -15 -10 -17 -9 -20 4 -15 11 5 13 2 9 -10
-3 -9 -10 -13 -16 -10 -5 3 -4 -3 3 -14 7 -12 16 -19 20 -16 12 7 18 -23 7
-34 -6 -6 -6 -12 3 -17 8 -6 10 -4 4 5 -5 8 -4 11 3 7 5 -4 8 -16 5 -27 -3
-11 0 -20 6 -20 8 0 9 -6 2 -18 -9 -17 9 -58 21 -46 4 3 6 -1 5 -8 0 -7 1 -24
2 -38 1 -20 3 -22 12 -10 8 12 10 12 8 -5 -3 -36 1 -56 9 -51 5 3 9 -1 9 -9 0
-8 -5 -11 -11 -8 -6 4 -2 -4 9 -17 11 -13 15 -21 9 -17 -6 3 -11 0 -11 -8 0
-8 4 -12 9 -9 4 3 8 -2 8 -11 0 -9 4 -14 9 -10 5 3 13 1 16 -5 4 -6 3 -9 -2
-8 -4 2 -8 -1 -8 -7 0 -5 3 -9 7 -8 4 2 4 -5 1 -14 -4 -10 -2 -14 5 -9 7 4 8
-2 2 -23 -7 -24 -4 -31 14 -40 18 -10 18 -11 1 -6 -16 5 -18 4 -7 -6 6 -7 12
-21 12 -32 0 -12 4 -16 13 -11 7 5 6 0 -3 -11 -8 -10 -10 -16 -4 -12 7 4 14 0
17 -7 3 -8 1 -17 -6 -20 -7 -2 -3 -5 7 -5 16 -1 17 -4 8 -13 -7 -7 -12 -17
-12 -23 0 -5 5 -3 10 5 9 13 10 13 11 0 1 -8 1 -23 0 -33 -1 -9 3 -17 10 -17
6 0 9 -8 6 -20 -3 -11 3 -28 13 -40 10 -12 16 -29 13 -37 -4 -11 -2 -14 5 -9
7 4 12 2 12 -3 0 -6 -4 -11 -10 -11 -5 0 -10 -5 -10 -11 0 -5 5 -7 12 -3 8 5
9 2 5 -9 -3 -10 -2 -17 4 -17 6 0 7 -4 4 -10 -3 -5 -1 -10 6 -10 7 0 9 -3 6
-7 -4 -3 0 -15 9 -25 14 -15 15 -20 3 -35 -9 -11 -10 -14 -1 -9 11 7 16 -10
15 -51 -1 -7 4 -13 10 -13 6 0 7 -3 4 -7 -4 -3 1 -12 11 -20 9 -8 11 -12 5 -8
-20 10 -15 -9 8 -28 16 -15 18 -21 9 -33 -7 -8 -8 -14 -3 -14 5 0 9 -10 8 -23
-1 -12 4 -30 12 -39 8 -9 12 -22 7 -29 -5 -8 -3 -10 6 -4 10 6 12 4 7 -9 -4
-9 -3 -15 2 -12 5 3 11 -1 15 -9 3 -8 0 -17 -6 -21 -7 -5 -8 -2 -3 6 5 9 4 11
-3 6 -9 -5 -9 -12 0 -26 7 -10 15 -17 19 -14 4 2 10 -3 13 -12 4 -10 2 -13 -6
-8 -8 5 -9 2 -4 -12 5 -10 9 -25 9 -31 0 -7 5 -13 10 -13 5 0 7 -7 3 -15 -3
-9 3 -24 14 -35 13 -13 15 -20 7 -24 -9 -3 -9 -5 1 -5 6 -1 12 -6 12 -12 0 -6
-7 -8 -16 -5 -14 5 -15 4 -4 -9 7 -8 17 -12 22 -9 6 4 6 0 0 -12 -11 -21 8
-59 24 -46 4 4 2 -2 -6 -12 -14 -18 -13 -18 10 -12 17 5 21 4 12 -2 -17 -11
-11 -48 6 -44 7 1 12 -3 12 -9 0 -5 4 -7 10 -4 20 12 51 14 44 3 -5 -7 -2 -9
8 -5 9 3 21 0 27 -6 9 -9 10 -8 5 7 -5 13 -4 17 4 12 21 -13 52 -15 52 -4 0 6
7 5 17 -3 14 -12 15 -12 9 0 -6 8 1 7 18 -4 22 -15 25 -15 20 -2 -4 12 -1 14
15 10 11 -3 18 -10 15 -17 -3 -6 2 -2 10 8 9 11 16 15 16 9 0 -6 7 -13 14 -16
10 -4 13 -1 10 8 -4 10 0 12 15 8 11 -3 18 -10 15 -17 -3 -6 2 -2 10 8 9 11
16 14 16 8 0 -7 5 -12 11 -12 5 0 7 6 3 13 -6 9 -4 9 7 2 17 -12 39 -13 58 -1
9 6 12 5 7 -2 -7 -12 32 -11 53 3 10 5 12 4 7 -3 -10 -16 7 -15 23 1 8 6 11 7
8 1 -3 -6 0 -11 8 -11 8 0 12 4 9 8 -2 4 0 11 6 14 8 5 7 11 -1 21 -10 12 -10
15 2 12 8 -2 13 3 11 10 -1 6 2 12 8 12 6 0 9 3 9 8 -4 24 2 42 13 36 7 -5 8
-3 3 6 -4 7 -2 16 6 21 12 7 12 9 0 9 -11 0 -11 3 0 17 12 14 12 16 0 9 -9 -6
-12 -5 -9 5 3 8 11 13 18 11 10 -2 10 1 -1 14 -8 10 -9 15 -3 11 7 -4 14 0 18
8 3 8 0 15 -6 15 -7 0 -4 6 7 13 10 8 15 19 11 25 -3 5 0 13 6 15 10 4 9 8 -2
16 -8 6 -10 11 -5 11 16 0 35 48 21 54 -7 3 -7 5 2 5 6 1 12 8 12 17 0 8 5 12
10 9 13 -8 8 18 -5 27 -6 5 -3 8 7 8 23 0 28 22 9 38 -14 11 -14 11 1 6 13 -4
16 0 14 20 -2 14 0 25 3 24 18 -2 22 4 11 17 -9 11 -9 15 -1 15 7 0 9 5 5 12
-6 10 -5 10 8 0 13 -11 15 -8 12 23 -1 19 2 35 7 35 4 0 6 6 3 14 -3 8 0 17 7
22 8 5 10 3 4 -6 -5 -9 -4 -11 3 -6 8 5 9 13 2 26 -7 14 -6 19 6 24 10 4 14
14 11 26 -3 11 -1 20 4 20 4 0 6 6 3 14 -3 8 0 17 7 22 8 5 10 3 4 -6 -5 -8
-4 -11 3 -7 5 4 8 16 5 27 -3 11 -10 17 -16 13 -6 -4 -7 -1 -3 6 5 7 13 10 20
8 11 -4 15 8 17 56 0 9 5 17 11 17 6 0 8 3 5 7 -4 3 -2 12 4 20 9 10 8 13 -2
13 -8 0 -5 6 7 15 10 8 14 15 7 15 -7 0 -10 7 -7 15 3 8 11 13 17 12 7 -1 11
4 9 12 -1 7 1 18 6 25 4 6 7 21 6 34 0 12 3 22 7 22 5 0 9 5 9 11 0 5 -4 7
-10 4 -6 -3 -7 1 -4 10 5 13 9 13 22 3 13 -11 14 -10 3 10 -6 12 -8 22 -3 22
5 0 9 7 10 15 1 8 3 22 4 30 1 8 6 15 11 15 5 0 6 12 3 28 -4 18 -4 22 3 13 7
-11 11 -10 20 7 7 14 8 23 1 27 -17 11 -11 28 8 20 13 -5 14 -4 5 6 -9 9 -9
18 -2 31 8 14 7 24 -3 35 -11 14 -11 15 8 5 19 -10 20 -8 19 24 0 24 4 34 15
34 12 0 12 2 1 9 -10 6 -10 10 -1 16 6 4 9 14 6 22 -4 10 -2 13 8 10 10 -4 13
2 11 24 -1 16 2 29 7 29 5 0 6 5 3 10 -3 6 -1 10 6 10 7 0 10 12 7 34 -3 24 0
32 9 29 7 -3 13 -1 13 5 0 6 -6 13 -12 15 -8 4 -7 6 4 6 11 1 15 7 10 23 -3
14 -2 19 6 14 7 -4 12 -1 12 9 0 10 -5 14 -12 10 -7 -4 -5 0 5 8 10 8 17 19
16 23 -4 22 2 35 13 28 8 -5 9 -2 5 9 -7 19 1 49 12 43 9 -6 7 37 -3 52 -5 8
-2 11 6 10 8 -2 13 7 13 24 -1 22 2 25 14 15 12 -10 13 -9 7 1 -4 7 -2 20 6
29 9 12 9 15 1 9 -7 -4 -13 -2 -13 3 0 6 8 11 18 11 12 0 14 2 4 8 -13 9 -6
42 8 42 5 0 7 18 6 39 -2 31 0 37 9 28 7 -7 10 -16 7 -21 -3 -5 0 -6 7 -2 9 6
9 11 0 23 -8 9 -9 17 -3 21 15 11 16 54 1 47 -6 -4 -1 3 13 15 14 12 18 18 10
14 -13 -7 -13 -5 -2 9 8 9 11 21 7 27 -3 5 1 10 11 10 14 0 15 2 3 17 -12 14
-12 16 0 8 11 -6 13 -2 9 18 -3 15 -1 24 3 21 5 -3 10 0 10 5 1 6 3 16 4 21 1
6 3 17 4 26 0 8 6 12 11 9 6 -3 10 1 10 9 0 9 -6 16 -12 17 -7 0 -4 4 7 9 11
5 15 9 8 9 -7 1 -10 8 -7 16 4 8 11 12 18 8 6 -4 4 2 -4 12 -14 17 -13 18 5
11 16 -6 17 -5 8 5 -10 10 -9 15 5 25 15 12 15 15 2 24 -13 8 -12 10 4 10 15
0 16 3 6 15 -10 12 -10 15 0 15 7 0 10 7 6 15 -3 9 1 18 9 22 12 4 13 9 4 19
-9 11 -8 14 1 14 8 0 11 3 7 6 -3 4 0 12 7 19 7 7 12 27 11 43 -1 19 2 28 10
26 6 -3 12 2 12 10 0 8 -4 13 -8 10 -4 -2 -11 0 -14 6 -4 6 -1 9 7 8 8 -2 13
6 12 20 -1 17 2 20 11 12 11 -9 13 -3 10 30 -3 35 -1 39 11 29 12 -10 13 -9 9
4 -4 8 -2 18 4 22 6 3 11 15 11 26 0 10 6 19 13 19 7 0 8 3 2 8 -11 7 -16 54
-5 47 3 -2 12 5 19 17 10 16 10 19 -1 13 -7 -5 -3 2 9 14 23 22 39 28 28 11
-3 -5 -2 -10 4 -10 11 0 9 -19 -3 -39 -6 -10 -5 -12 2 -7 7 4 12 3 12 -3 0 -5
-4 -12 -9 -15 -10 -7 -9 -31 2 -42 4 -4 2 -13 -4 -21 -9 -10 -8 -13 1 -13 8 0
9 -4 3 -12 -11 -15 -11 -28 0 -45 5 -8 4 -13 -3 -13 -6 0 -8 -5 -4 -11 13 -21
13 -100 1 -92 -7 4 -6 -1 2 -10 11 -14 11 -17 0 -17 -12 0 -12 -2 0 -9 9 -6
10 -10 2 -16 -9 -5 -9 -10 0 -21 9 -11 8 -14 -2 -14 -12 0 -12 -2 0 -9 9 -6
10 -10 2 -16 -9 -5 -9 -10 -1 -20 8 -10 7 -14 -2 -17 -9 -4 -10 -9 -2 -19 12
-16 12 -29 1 -46 -4 -6 -2 -15 4 -19 8 -4 7 -9 -2 -15 -12 -7 -12 -9 0 -9 10
0 11 -3 2 -14 -9 -11 -9 -16 0 -21 8 -6 7 -10 -2 -16 -12 -7 -12 -9 0 -9 10 0
11 -3 2 -14 -9 -11 -9 -16 0 -21 8 -6 7 -10 -2 -16 -12 -7 -12 -9 0 -9 10 0
11 -3 2 -14 -9 -11 -9 -16 0 -21 8 -6 7 -10 -2 -16 -12 -7 -12 -9 0 -9 10 0
11 -3 2 -14 -8 -10 -9 -16 -1 -21 6 -3 7 -12 3 -18 -12 -19 -12 -36 -1 -43 6
-4 5 -10 -3 -15 -12 -7 -12 -9 0 -9 9 0 10 -4 4 -12 -11 -15 -11 -28 0 -45 5
-8 4 -13 -2 -13 -6 0 -11 -5 -11 -11 0 -5 4 -8 9 -4 10 6 6 -33 -4 -43 -2 -3
0 -11 6 -19 9 -10 8 -13 -2 -13 -9 0 -10 -3 -4 -8 15 -11 17 -32 2 -32 -8 0
-7 -4 3 -10 13 -9 13 -10 0 -10 -12 0 -12 -2 -2 -9 8 -4 14 -12 14 -16 0 -4
-6 -12 -14 -16 -10 -7 -10 -9 0 -9 6 0 12 -5 12 -11 0 -5 -5 -7 -11 -3 -8 4
-8 0 0 -15 9 -16 9 -21 -1 -21 -9 0 -9 -3 2 -10 13 -9 13 -10 0 -10 -12 0 -12
-2 -1 -9 9 -6 10 -10 2 -16 -9 -5 -9 -10 0 -21 9 -11 8 -14 -2 -14 -12 0 -12
-2 0 -9 9 -6 10 -10 2 -16 -9 -5 -9 -10 0 -21 9 -11 8 -14 -2 -14 -12 0 -12
-2 0 -9 9 -6 10 -11 2 -15 -6 -4 -8 -13 -4 -19 11 -17 11 -57 -1 -50 -5 4 -6
1 0 -8 13 -20 12 -59 -1 -51 -5 3 -4 -2 4 -12 12 -14 12 -19 2 -26 -10 -5 -10
-9 -2 -15 9 -5 9 -11 -1 -23 -10 -12 -10 -14 -1 -8 16 9 13 -35 -2 -46 -6 -5
-6 -8 1 -8 12 0 13 -45 1 -56 -4 -4 -2 -13 4 -21 9 -10 8 -13 -2 -13 -9 0 -10
-3 -4 -8 14 -9 14 -45 0 -54 -6 -5 -5 -8 4 -8 11 0 11 -3 0 -17 -10 -11 -10
-14 -1 -9 15 9 16 -6 0 -22 -8 -8 -8 -12 -1 -12 13 0 12 -53 -2 -62 -6 -5 -5
-8 4 -8 10 0 11 -3 2 -14 -9 -11 -9 -16 0 -21 8 -6 7 -10 -2 -16 -12 -7 -12
-9 0 -9 10 0 11 -3 2 -14 -7 -9 -8 -17 -2 -20 10 -7 10 -24 -2 -43 -4 -6 -3
-15 3 -18 8 -5 8 -11 0 -20 -8 -10 -8 -15 1 -20 8 -6 7 -10 -2 -16 -12 -7 -12
-9 0 -9 10 0 11 -3 2 -14 -9 -11 -9 -16 0 -21 8 -6 7 -10 -2 -16 -12 -7 -12
-9 0 -9 10 0 11 -3 2 -13 -6 -8 -9 -16 -7 -18 12 -11 14 -59 3 -59 -8 0 -8 -3
-2 -8 13 -9 14 -63 1 -55 -5 4 -6 1 0 -8 12 -19 12 -59 0 -52 -5 4 -6 1 0 -8
12 -19 12 -59 0 -52 -5 4 -6 1 0 -8 13 -20 12 -59 -1 -51 -5 3 -4 -2 4 -11 11
-14 11 -20 1 -32 -10 -12 -10 -15 0 -15 9 0 9 -4 -1 -17 -10 -11 -10 -14 -1
-9 6 4 12 3 12 -3 0 -5 -5 -13 -10 -16 -6 -4 -7 -12 -3 -18 12 -19 11 -57 -1
-57 -7 0 -8 -3 -1 -8 14 -9 14 -45 0 -54 -6 -5 -6 -8 2 -8 12 0 12 -17 0 -37
-5 -7 -4 -13 1 -13 12 0 10 -63 -3 -72 -6 -5 -5 -8 4 -8 10 0 11 -3 2 -14 -9
-11 -9 -16 0 -21 8 -6 7 -10 -2 -16 -9 -5 -10 -9 -2 -9 6 0 10 -13 9 -28 -2
-24 2 -28 20 -26 13 1 28 5 33 9 6 3 11 -2 11 -12 1 -17 1 -17 11 -1 7 13 15
15 33 8 26 -10 75 -8 93 3 6 4 14 3 18 -3 3 -5 11 -10 16 -10 6 0 7 5 3 12 -5
7 -3 8 7 3 20 -13 49 -13 49 -1 0 6 5 4 10 -4 9 -13 10 -13 10 0 0 11 2 12 8
3 8 -12 27 -12 67 2 16 5 17 5 5 -3 -11 -8 -7 -11 18 -10 20 1 29 5 25 12 -4
6 0 6 8 -1 12 -10 18 -10 27 -1 9 9 12 9 12 0 0 -13 39 -10 61 4 7 4 9 3 5 -4
-4 -7 1 -10 14 -9 11 1 20 4 20 8 0 12 31 3 41 -12 5 -8 9 -9 9 -2 0 6 8 10
18 8 9 -1 22 2 29 7 7 6 14 5 18 -2 5 -8 11 -7 23 2 12 10 14 10 8 1 -9 -16
-5 -16 29 -3 17 7 24 7 20 0 -3 -6 3 -10 15 -10 12 0 19 4 16 8 -2 4 4 8 14 8
10 0 16 -4 13 -9 -7 -12 30 -4 39 8 5 6 8 5 8 -3 0 -13 38 -10 61 4 8 4 9 3 5
-4 -9 -15 36 -12 46 3 5 6 8 5 8 -3 0 -13 38 -10 61 4 8 4 9 3 5 -4 -8 -13 6
-17 17 -5 9 9 57 10 51 2 -5 -9 47 -6 63 4 6 4 15 3 18 -3 5 -8 12 -7 23 2 13
11 14 11 8 0 -7 -11 -4 -12 13 -3 22 12 30 27 9 16 -7 -4 -5 0 5 8 22 18 22
31 0 23 -15 -6 -15 -4 2 14 14 15 15 20 4 20 -12 0 -12 2 0 9 12 8 12 12 2 25
-8 9 -9 16 -5 16 14 0 7 72 -8 81 -10 7 -8 9 7 9 20 1 20 1 1 15 -19 14 -19
15 -2 15 16 0 17 2 5 17 -10 11 -10 14 -1 9 15 -9 16 6 0 22 -9 9 -9 12 2 12
13 0 13 2 0 10 -10 6 -11 10 -2 10 6 0 12 5 12 11 0 6 -7 8 -17 5 -16 -6 -16
-6 0 12 20 22 22 36 5 26 -8 -5 -7 0 2 11 14 17 13 18 -4 11 -19 -6 -19 -6 -3
12 12 13 14 21 6 29 -8 8 -8 13 0 17 6 4 11 12 11 18 0 6 -7 5 -17 -3 -15 -11
-14 -10 1 9 12 13 14 22 7 22 -7 0 -9 5 -5 12 11 18 12 48 2 48 -5 0 -6 6 -2
12 11 18 12 48 2 48 -5 0 -6 5 -2 11 10 16 11 229 1 229 -5 0 -5 5 -1 12 11
18 11 57 0 51 -5 -4 -6 0 -1 8 15 23 13 49 -4 49 -13 1 -12 3 3 11 15 9 16 13
5 20 -10 6 -11 9 -1 9 19 0 14 20 -5 20 -17 1 -17 1 0 11 18 10 18 12 1 31
-10 11 -14 19 -9 18 22 -5 27 1 14 17 -10 11 -10 14 -1 9 17 -10 15 4 -4 26
-16 16 -16 18 0 24 21 8 21 21 -1 27 -15 4 -15 5 -2 6 12 1 15 8 11 28 -2 16
-9 34 -15 41 -7 9 -6 11 4 7 10 -4 14 4 14 29 0 19 -3 32 -6 30 -4 -2 -9 3
-12 11 -4 8 -1 12 6 9 7 -2 12 5 12 20 0 19 -3 22 -13 14 -9 -8 -11 -7 -6 6 3
9 9 16 13 16 3 0 6 11 6 24 0 13 -3 22 -7 20 -4 -2 -9 0 -13 6 -3 5 0 10 7 10
7 0 13 11 13 24 0 13 -3 22 -6 20 -4 -2 -9 3 -12 11 -4 9 -1 12 8 9 10 -4 12
1 8 18 -4 13 -11 26 -17 30 -7 5 -5 8 6 8 17 0 15 33 -5 58 -7 9 -6 11 4 7 19
-7 17 78 -2 102 -9 11 -10 14 -1 9 8 -5 12 0 12 14 0 14 -4 19 -12 15 -7 -4
-6 0 4 7 12 10 13 19 7 31 -7 12 -6 17 1 17 6 0 8 5 5 10 -4 6 -12 8 -18 4 -7
-3 -4 1 5 8 15 13 15 15 0 26 -15 10 -15 11 3 5 19 -7 20 -6 2 20 -14 22 -15
28 -4 33 15 5 12 50 -6 72 -7 9 -5 11 9 5 17 -6 18 -5 4 12 -9 11 -10 16 -2
11 18 -11 15 9 -4 25 -14 12 -14 14 3 27 13 11 15 16 5 19 -10 4 -10 8 0 21
11 14 10 15 -7 9 -20 -7 -20 -7 0 8 16 13 17 17 6 24 -10 7 -10 10 -1 16 9 6
9 10 -1 16 -10 6 -11 9 -1 9 19 0 14 20 -5 20 -15 0 -15 2 -4 9 15 10 19 55 8
84 -3 9 -3 17 2 17 10 0 2 51 -12 68 -7 9 -6 11 5 7 12 -5 14 0 11 19 -3 15
-10 23 -17 20 -6 -3 -4 0 4 8 20 18 20 77 0 71 -13 -4 -13 -3 0 9 15 13 23 61
9 52 -4 -2 -10 0 -14 6 -3 5 0 10 8 10 16 0 13 34 -6 58 -7 9 -6 11 4 7 11 -4
13 6 11 52 -2 32 -3 69 -2 82 0 14 -6 28 -12 33 -10 6 -9 8 2 8 12 0 15 12 13
56 0 30 -4 58 -7 61 -3 4 0 13 7 21 8 11 8 14 0 9 -6 -4 -14 -3 -18 3 -3 5 0
10 7 10 7 0 13 11 13 24 0 19 -3 22 -13 14 -9 -8 -11 -7 -6 6 3 9 9 16 13 16
3 0 6 11 6 24 0 16 -5 22 -15 19 -13 -4 -13 -3 0 9 21 18 21 57 1 51 -14 -4
-14 -3 -1 9 15 13 23 61 9 52 -4 -2 -10 0 -14 6 -3 5 0 10 7 10 7 0 13 11 13
24 0 19 -3 22 -13 14 -9 -8 -11 -7 -6 6 3 9 9 16 13 16 3 0 6 11 6 24 0 13 -3
22 -7 20 -4 -2 -9 0 -13 6 -3 5 0 10 7 10 10 0 13 23 12 99 -1 55 -5 104 -8
110 -3 5 0 11 6 14 10 3 10 8 -1 18 -12 12 -13 12 -6 0 6 -10 4 -12 -5 -6 -10
6 -10 10 2 19 10 8 12 19 7 39 -4 16 -3 27 2 27 6 0 7 5 4 10 -4 6 -12 8 -18
4 -7 -3 -4 1 5 8 15 13 15 15 0 26 -15 10 -15 11 2 5 16 -5 17 -3 7 15 -9 17
-9 22 0 22 7 0 5 8 -6 20 -18 20 -18 21 1 14 17 -7 17 -6 5 9 -9 12 -10 17 -2
17 7 0 9 5 6 10 -4 6 -12 8 -18 4 -7 -3 -5 0 4 8 11 9 13 21 8 41 -5 18 -3 27
4 27 7 0 3 7 -7 15 -20 15 -20 15 0 15 16 0 17 2 4 10 -8 5 -10 10 -4 10 14 0
6 52 -10 62 -7 5 -4 8 8 8 16 0 17 2 5 17 -10 11 -10 14 -1 9 6 -4 12 -3 12 3
0 5 -8 12 -17 14 -16 4 -16 5 -2 6 14 1 16 7 9 36 -4 19 -4 35 0 35 10 0 1 40
-12 57 -6 7 -4 15 7 20 18 10 10 46 -9 37 -6 -3 -3 1 6 9 16 13 16 15 1 30
-15 15 -15 17 1 23 16 6 16 8 -1 28 -16 19 -16 19 -1 7 17 -12 17 -11 12 20
-4 19 -11 40 -17 47 -7 9 -5 11 9 5 17 -6 18 -5 4 12 -9 11 -10 16 -2 11 18
-11 14 5 -5 20 -14 11 -15 13 -2 9 13 -5 15 0 11 24 -2 19 -9 29 -16 25 -6 -3
-2 2 8 10 15 12 16 16 5 16 -12 0 -12 2 1 10 14 9 7 14 -13 11 -5 -1 -6 3 -2
9 3 6 11 8 16 5 15 -10 10 12 -7 29 -14 15 -14 16 3 16 15 0 16 2 3 10 -11 7
-11 10 -2 10 10 0 10 5 2 20 -8 15 -8 20 1 20 8 0 8 4 -1 15 -7 9 -8 15 -2 15
11 0 4 38 -11 58 -7 9 -6 11 6 6 12 -4 14 -1 10 18 -4 13 -11 26 -17 30 -7 5
-3 8 8 8 16 0 17 2 5 17 -9 11 -10 14 -2 9 16 -9 5 55 -11 66 -7 5 -5 8 6 8
14 0 15 5 8 30 -6 21 -5 30 3 30 8 0 7 3 -2 9 -11 7 -11 9 0 14 12 4 11 7 -1
16 -10 7 -11 11 -3 11 7 0 10 7 7 15 -4 8 -11 12 -18 9 -6 -3 -3 1 6 9 16 13
16 15 0 31 -16 16 -16 17 3 10 18 -7 19 -6 5 11 -9 11 -10 16 -2 11 17 -10 15
4 -5 26 -16 18 -16 18 3 12 17 -7 18 -6 4 11 -9 11 -10 16 -2 11 15 -9 16 6 0
22 -9 9 -9 12 2 12 11 1 9 5 -5 17 -16 13 -17 15 -2 10 20 -7 22 4 5 21 -9 9
-9 12 2 12 11 1 9 5 -5 17 -16 13 -17 15 -2 10 20 -7 22 4 5 21 -9 9 -9 12 1
12 11 0 11 3 0 17 -12 14 -12 16 0 9 9 -6 12 -5 9 5 -3 8 -12 13 -19 11 -11
-2 -11 1 1 10 16 14 19 66 5 88 -4 7 -2 16 6 21 12 7 11 9 -1 9 -13 0 -13 2
-1 9 12 8 12 12 2 25 -11 13 -11 16 0 17 8 0 5 4 -6 9 -17 7 -17 9 -2 9 20 1
22 12 5 29 -9 9 -9 12 2 13 10 0 7 4 -5 9 -17 7 -17 9 -2 9 20 1 22 12 5 29
-9 9 -9 12 2 12 9 0 8 5 -6 15 -16 13 -16 14 -1 9 9 -3 17 -1 17 5 0 6 -5 11
-12 11 -9 0 -9 3 0 12 9 9 7 14 -6 25 -16 12 -16 13 1 7 9 -3 17 -1 17 5 0 6
-5 11 -11 11 -5 0 -7 5 -3 12 9 14 10 259 1 282 -3 8 -2 18 4 22 6 4 5 12 -3
22 -7 9 -8 13 -3 10 6 -4 10 16 10 53 0 32 -4 59 -9 59 -5 0 -3 6 3 14 10 11
8 15 -6 19 -17 4 -17 5 0 6 18 1 24 21 6 21 -8 0 -8 4 0 14 10 11 8 17 -6 26
-16 10 -16 11 0 6 20 -6 22 5 5 22 -9 9 -9 12 1 12 7 0 9 5 6 10 -4 6 -11 7
-17 4 -7 -4 -8 -2 -4 5 4 6 12 9 17 6 13 -9 11 9 -3 23 -9 9 -9 12 1 12 7 0 9
5 6 10 -4 6 -11 7 -17 4 -7 -4 -8 -2 -4 5 4 6 12 9 17 6 13 -9 11 9 -3 23 -9
9 -9 12 2 12 11 1 9 5 -5 17 -16 13 -17 15 -2 10 20 -7 22 4 5 21 -9 9 -9 12
2 12 9 0 8 5 -6 15 -16 13 -16 14 -1 9 9 -3 17 -1 17 5 0 6 -5 11 -12 11 -9 0
-9 3 0 12 16 16 15 31 0 22 -9 -5 -9 -2 1 9 10 13 10 17 1 17 -10 0 -10 3 -1
14 8 9 8 16 2 20 -6 4 -8 13 -5 20 4 11 -5 14 -40 11 -27 -2 -44 0 -41 6 4 5
1 9 -4 9 -6 0 -11 -4 -11 -9 0 -5 -10 -7 -22 -3 -16 4 -19 2 -13 -9 5 -8 1 -7
-11 3 -16 14 -23 15 -32 6 -9 -9 -15 -9 -23 -1 -8 8 -20 8 -35 3 -14 -6 -26
-5 -29 1 -4 5 -11 6 -18 2 -18 -11 -187 -12 -181 -1 4 6 -3 5 -14 -1 -14 -7
-23 -8 -27 -1 -4 6 -11 7 -17 4 -18 -12 -73 -12 -80 -1 -5 8 -11 7 -21 -1 -7
-7 -17 -9 -20 -5 -4 3 -7 1 -7 -6 0 -8 -5 -7 -16 3 -16 16 -39 22 -30 8 2 -4
-11 -8 -30 -8 -19 0 -34 4 -34 9 0 5 -7 3 -17 -4 -19 -16 -23 -16 -34 3 -5 7
-9 8 -9 3 0 -12 -39 -14 -56 -3 -6 4 -14 4 -18 1 -12 -12 -61 -11 -68 1 -5 8
-8 7 -8 -2 0 -9 -5 -10 -19 -2 -14 7 -22 7 -26 0 -5 -8 -12 -7 -23 2 -9 7 -13
8 -9 2 8 -14 -115 -13 -125 1 -5 7 -8 7 -8 0 0 -5 -11 -11 -25 -11 -16 -1 -22
2 -18 10 4 6 -1 5 -11 -3 -15 -13 -19 -13 -27 0 -5 8 -9 9 -9 2 0 -6 -9 -9
-22 -5 -15 4 -19 2 -13 -7 4 -8 -1 -18 -14 -28 -16 -11 -19 -18 -11 -28 14
-17 -5 -69 -22 -59 -7 5 -8 3 -2 -7 14 -23 14 -41 -1 -35 -17 6 -30 -10 -15
-19 8 -5 7 -11 -1 -21 -9 -11 -8 -14 2 -14 11 0 11 -2 -1 -10 -8 -5 -11 -10
-6 -10 6 0 1 -7 -10 -15 -10 -8 -14 -15 -7 -15 8 0 4 -15 -11 -44 -18 -33 -21
-47 -12 -57 8 -9 8 -10 0 -6 -7 4 -15 0 -18 -9 -10 -25 -7 -36 7 -28 6 4 4 -2
-6 -13 -9 -11 -14 -23 -11 -26 4 -4 1 -13 -5 -21 -7 -8 -10 -20 -6 -25 3 -6
-3 -19 -14 -30 -12 -12 -16 -22 -9 -29 6 -6 5 -12 -3 -17 -8 -6 -10 -4 -4 5 5
8 4 11 -3 6 -6 -4 -9 -13 -5 -22 3 -8 -3 -22 -13 -30 -11 -9 -14 -13 -8 -10 7
3 15 -1 18 -10 4 -10 2 -13 -6 -8 -8 5 -9 2 -5 -10 4 -10 3 -15 -3 -11 -6 3
-11 -1 -11 -9 -3 -35 -5 -41 -15 -39 -6 1 -10 -8 -9 -20 2 -13 8 -21 16 -19 9
2 8 -2 -4 -16 -9 -10 -14 -23 -10 -27 5 -5 1 -4 -7 2 -13 10 -15 5 -15 -32 1
-24 -2 -42 -5 -40 -3 2 -12 0 -20 -6 -12 -7 -12 -9 -1 -9 11 0 11 -3 1 -15 -9
-11 -9 -15 -1 -15 7 0 9 -5 6 -10 -4 -6 -11 -7 -17 -4 -6 4 -6 -1 1 -14 9 -17
8 -23 -6 -32 -12 -8 -14 -13 -6 -16 8 -4 5 -12 -8 -25 -16 -16 -18 -23 -9 -34
10 -12 8 -13 -10 -10 -18 3 -20 2 -10 -10 7 -8 7 -15 1 -19 -12 -8 -10 -48 4
-59 6 -6 3 -7 -7 -4 -23 8 -29 -2 -17 -26 9 -15 8 -18 -2 -12 -9 6 -11 3 -6
-8 4 -10 2 -16 -4 -14 -6 1 -13 -14 -15 -33 -2 -19 -11 -38 -20 -43 -11 -6
-12 -12 -5 -21 7 -8 6 -20 -4 -39 -8 -15 -11 -27 -7 -27 4 0 -1 -5 -10 -11
-11 -6 -15 -16 -11 -26 5 -12 3 -14 -8 -8 -11 6 -12 5 -2 -5 10 -11 9 -16 -5
-27 -9 -8 -12 -12 -6 -9 18 9 25 -21 8 -34 -8 -7 -14 -19 -14 -26 0 -8 -5 -14
-11 -14 -6 0 -9 -7 -5 -15 3 -8 1 -15 -4 -15 -5 0 -7 -7 -3 -15 3 -9 -3 -26
-13 -38 -17 -19 -17 -20 -1 -8 15 12 17 12 11 -3 -3 -9 -14 -16 -23 -16 -9 0
-12 -3 -6 -8 13 -9 18 -35 5 -27 -14 9 -13 -8 3 -24 10 -10 8 -11 -8 -5 -11 4
-17 4 -13 -1 4 -4 3 -14 -3 -21 -6 -7 -12 -28 -14 -46 -2 -18 -4 -37 -4 -41
-1 -5 -5 -5 -11 -2 -6 4 -7 -1 -3 -11 4 -12 3 -15 -5 -10 -7 4 -12 2 -12 -3 0
-6 5 -11 12 -11 6 0 3 -10 -8 -22 -13 -14 -14 -19 -4 -14 8 4 7 1 -3 -7 -11
-9 -14 -16 -7 -19 7 -2 8 -11 2 -28 -5 -14 -13 -23 -17 -20 -13 8 -14 -44 -1
-52 8 -5 7 -8 -2 -8 -7 0 -10 -4 -7 -10 3 -6 -1 -7 -10 -4 -13 5 -15 1 -11
-19 2 -14 -2 -34 -9 -44 -18 -22 -19 -37 -3 -27 7 4 1 -8 -12 -26 -13 -18 -18
-30 -11 -26 10 7 11 4 2 -11 -6 -11 -7 -23 -3 -27 3 -4 -2 -4 -13 0 -16 6 -18
5 -7 -7 15 -17 16 -33 0 -23 -8 5 -9 2 -5 -9 3 -10 2 -17 -3 -17 -6 0 -10 -5
-10 -11 0 -5 4 -7 10 -4 6 3 7 -1 4 -9 -3 -9 -10 -14 -14 -11 -4 3 -11 -2 -14
-11 -3 -8 -2 -12 4 -9 13 8 7 -35 -6 -43 -15 -10 -27 -42 -29 -76 -1 -15 -8
-32 -15 -36 -10 -6 -9 -9 1 -13 11 -5 11 -8 -2 -16 -11 -7 -15 -19 -11 -37 4
-21 2 -25 -8 -19 -10 6 -12 4 -7 -8 3 -10 3 -17 -2 -17 -4 0 -7 -13 -6 -30 1
-16 -2 -27 -6 -25 -10 7 -16 -15 -14 -55 1 -19 0 -29 -2 -22 -3 6 -9 12 -15
12 -6 0 -8 -6 -5 -13 3 -8 1 -20 -3 -28 -6 -8 -4 -16 3 -21 8 -5 6 -8 -6 -8
-13 0 -16 -6 -13 -26 4 -18 1 -24 -7 -21 -8 3 -14 -4 -14 -15 -2 -17 0 -18 15
-6 15 11 15 10 -1 -8 -9 -11 -14 -24 -10 -27 3 -4 1 -7 -6 -7 -8 0 -11 -7 -7
-15 3 -8 2 -14 -2 -14 -19 3 -25 -2 -13 -10 12 -8 12 -12 2 -25 -7 -8 -10 -20
-7 -25 4 -5 1 -13 -5 -17 -8 -5 -9 -3 -4 6 5 8 4 11 -3 7 -5 -4 -9 -18 -8 -32
2 -13 -3 -26 -11 -29 -10 -4 -12 -13 -8 -27 5 -15 4 -19 -5 -14 -9 6 -9 3 -1
-14 10 -17 9 -22 -4 -28 -13 -5 -14 -7 -3 -14 11 -7 11 -9 -1 -9 -8 0 -11 -7
-8 -20 3 -11 1 -18 -4 -14 -5 3 -9 0 -9 -6 0 -6 -5 -8 -12 -4 -10 6 -10 5 -1
-7 10 -12 9 -21 -2 -43 -8 -15 -12 -33 -8 -39 4 -7 -1 -8 -13 -4 -17 6 -17 6
-3 -6 14 -11 14 -14 2 -26 -8 -7 -12 -19 -9 -27 3 -8 1 -14 -3 -14 -5 0 -8 -8
-6 -17 1 -10 -5 -26 -13 -36 -19 -21 -24 -45 -11 -53 12 -7 2 -24 -14 -24 -7
0 -6 4 3 10 8 5 10 10 4 10 -18 0 -25 -12 -14 -25 12 -15 2 -48 -11 -39 -6 3
-7 -8 -4 -26 4 -20 2 -29 -5 -25 -10 6 -14 -7 -11 -34 2 -7 -2 -10 -8 -6 -8 4
-8 -2 -1 -19 6 -17 6 -27 -2 -32 -7 -4 -8 -3 -4 4 5 8 1 10 -9 6 -11 -5 -13
-10 -6 -17 11 -11 -6 -57 -23 -57 -6 0 -4 -5 4 -10 13 -9 13 -10 0 -10 -13 0
-13 -1 0 -10 10 -6 11 -10 3 -10 -7 0 -13 -7 -13 -15 0 -8 -4 -15 -9 -15 -9 0
-9 -9 1 -50 1 -8 -3 -14 -9 -13 -12 3 -15 -1 -17 -29 -1 -7 -4 -15 -8 -18 -3
-3 -9 -27 -12 -54 -4 -29 -13 -55 -23 -63 -10 -8 -13 -12 -7 -9 6 3 11 -1 11
-8 0 -8 -7 -12 -15 -8 -10 3 -13 1 -8 -6 4 -7 2 -12 -4 -12 -6 0 -9 -4 -5 -9
3 -5 0 -13 -7 -17 -7 -4 -10 -4 -6 1 4 4 3 16 -2 26 -7 12 -6 19 3 22 6 3 3 6
-8 6 -17 1 -17 3 -5 11 11 7 11 10 2 10 -7 0 -11 4 -7 9 3 5 1 12 -4 16 -6 3
-7 13 -4 22 5 12 3 14 -8 8 -11 -7 -11 -5 1 10 8 10 10 16 5 13 -6 -4 -16 2
-23 12 -8 13 -8 21 -1 26 7 4 4 13 -7 25 -13 15 -14 19 -3 19 11 1 10 4 -3 14
-14 10 -15 15 -5 26 9 10 9 11 0 6 -7 -4 -14 -2 -14 3 -4 32 -6 36 -15 34 -6
-1 -11 4 -11 12 0 8 4 12 9 9 4 -3 5 2 2 10 -3 9 -11 13 -18 9 -7 -4 -7 -2 1
8 10 12 10 18 0 29 -10 10 -9 12 3 6 13 -7 13 -6 0 6 -8 7 -16 22 -18 33 -8
60 -11 70 -21 73 -6 2 -11 17 -11 33 0 17 -4 28 -8 25 -4 -2 -7 15 -7 39 1 32
-2 42 -12 38 -16 -6 -16 2 -3 27 9 16 7 18 -11 15 -17 -4 -19 -2 -9 10 10 12
10 15 -1 15 -11 0 -11 2 1 10 12 8 12 10 1 10 -11 0 -11 3 0 18 7 9 10 14 5
10 -5 -4 -15 0 -24 8 -13 14 -13 17 -1 25 10 6 10 9 2 9 -7 0 -13 7 -13 15 0
8 -4 15 -8 15 -5 0 -9 6 -9 13 -1 41 -15 102 -25 109 -10 6 -10 8 0 8 10 0 10
3 0 14 -7 8 -17 11 -23 8 -5 -3 -4 2 4 11 11 14 11 17 0 17 -11 0 -11 2 -2 8
9 6 8 11 -6 21 -11 9 -16 21 -13 37 3 16 -1 26 -14 31 -16 6 -16 7 2 14 15 6
16 8 2 8 -11 1 -15 7 -11 20 3 11 -4 28 -19 41 -12 13 -17 20 -11 16 9 -5 12
1 11 18 -1 15 -8 26 -16 26 -9 0 -10 5 -2 19 8 16 6 22 -7 30 -14 8 -15 10 -3
11 13 0 13 2 0 9 -8 6 -19 7 -25 5 -5 -3 -1 2 9 10 11 9 15 16 8 16 -6 0 -16
10 -23 21 -9 17 -8 20 3 14 7 -3 4 1 -6 9 -11 9 -15 16 -10 16 15 0 11 35 -6
55 -7 9 -15 30 -17 48 -2 17 -9 35 -16 39 -9 6 -8 8 3 8 9 1 5 6 -10 16 l-25
15 25 -7 c25 -6 25 -6 5 12 -12 11 -19 27 -17 38 3 12 0 16 -8 11 -9 -6 -9 -2
-1 14 9 17 9 20 -3 15 -16 -6 -16 11 -2 35 6 10 5 12 -2 7 -8 -5 -12 0 -12 13
0 12 -5 21 -11 21 -5 0 -9 8 -8 18 4 40 -1 63 -13 56 -8 -5 -9 -2 -5 10 6 14
3 17 -8 12 -11 -4 -14 -2 -8 7 14 23 12 39 -4 33 -13 -5 -14 -4 -3 9 10 12 10
15 -1 15 -11 0 -11 2 1 10 10 6 11 10 3 10 -7 0 -13 5 -13 11 0 5 6 7 13 4 6
-4 3 2 -8 12 -11 10 -19 26 -17 37 2 10 0 16 -5 13 -5 -3 -9 2 -9 11 -1 9 -5
26 -9 36 -6 15 -5 17 5 11 9 -5 11 -4 6 3 -4 7 -15 12 -24 12 -13 0 -14 2 -3
9 7 5 9 11 4 14 -6 4 -9 22 -8 42 1 19 -2 35 -7 35 -4 0 -10 11 -14 25 -3 14
-10 25 -15 25 -4 0 -6 9 -4 20 2 11 -2 20 -8 20 -7 0 -6 4 3 10 13 9 13 10 0
10 -11 0 -15 9 -14 28 0 15 -4 30 -10 34 -8 5 -7 8 2 8 10 0 10 3 0 14 -7 8
-17 12 -21 9 -5 -3 -4 3 1 13 7 14 7 24 -2 36 -7 10 -15 16 -18 13 -2 -3 -5 2
-5 10 0 8 5 11 11 8 6 -4 5 0 -2 9 -10 13 -10 17 0 21 10 4 10 6 1 6 -7 1 -13
8 -13 16 0 8 -4 15 -8 15 -5 0 -9 6 -9 13 -1 22 -8 42 -18 50 -6 6 -5 10 3 14
10 4 9 9 -5 20 -11 9 -12 12 -3 8 13 -6 13 -5 0 7 -8 7 -15 27 -16 43 0 22 -5
30 -17 29 -10 -1 -14 3 -10 10 10 14 4 47 -10 65 -10 12 -9 13 3 6 13 -7 13
-6 2 7 -7 9 -14 29 -15 46 -1 16 -5 28 -9 25 -5 -2 -9 6 -10 19 -2 43 -3 47
-12 55 -5 5 -6 2 -1 -6 5 -9 4 -12 -3 -7 -6 3 -9 16 -7 28 3 12 -3 27 -13 35
-16 14 -16 14 1 9 11 -3 16 -2 12 4 -3 6 -14 10 -23 11 -11 0 -12 3 -4 6 17 7
15 32 -3 39 -8 4 -15 10 -15 16 0 5 5 6 11 2 8 -5 8 -1 0 14 -6 12 -15 24 -21
27 -5 3 -6 13 -3 22 5 11 3 14 -6 8 -10 -6 -11 -3 -1 16 10 18 10 24 -2 33 -8
6 -13 17 -11 24 3 6 -1 12 -9 12 -10 0 -9 3 2 10 13 8 13 11 1 22 -10 9 -12
10 -7 1 5 -9 2 -11 -8 -7 -9 3 -13 11 -9 18 12 18 9 40 -7 54 -13 12 -13 13 0
7 9 -4 8 -1 -3 8 -11 9 -14 18 -8 21 6 4 5 16 -4 33 -8 15 -12 30 -9 35 3 4 0
8 -6 8 -6 0 -10 10 -8 23 2 13 -2 21 -9 20 -7 -2 -13 2 -13 7 0 6 5 10 12 10
9 0 9 3 0 12 -16 16 -15 31 1 23 6 -4 3 2 -8 12 -21 19 -34 60 -16 48 17 -10
13 1 -6 16 -15 12 -16 12 -8 -1 5 -9 5 -12 -1 -7 -5 5 -9 12 -9 15 0 4 -4 13
-9 21 -6 9 -5 12 1 8 7 -4 10 3 9 17 0 13 -3 24 -6 24 -18 -1 -21 4 -10 17 9
10 9 15 1 15 -6 0 -11 7 -11 15 0 8 -4 15 -10 15 -5 0 -10 5 -10 11 0 5 5 7
10 4 6 -3 10 -1 10 4 0 6 -3 11 -8 11 -4 0 -13 9 -20 21 -8 12 -9 18 -3 15 14
-9 1 26 -13 36 -8 5 -7 8 1 8 9 0 10 7 3 24 -5 13 -6 27 -2 32 4 4 1 4 -5 0
-9 -5 -13 1 -13 19 0 17 -4 24 -12 19 -8 -5 -9 -2 -5 9 3 10 3 17 -1 17 -5 0
-7 14 -6 30 1 17 -2 30 -7 30 -5 0 -9 10 -9 22 0 12 -3 18 -7 15 -3 -4 -12 1
-20 11 -14 16 -14 16 -9 -1 4 -14 2 -16 -12 -8 -9 5 -34 7 -54 6 -22 -2 -38 1
-38 7 0 7 -5 6 -14 -1 -10 -8 -16 -9 -21 -1 -3 6 -12 7 -18 3 -17 -11 -61 -11
-68 0 -4 6 -13 6 -20 1 -19 -12 -59 -13 -59 -2 0 5 -6 6 -12 1 -20 -12 -46
-14 -53 -3 -4 6 -12 7 -18 3 -21 -13 -68 -13 -60 0 4 7 -1 6 -10 -2 -14 -11
-17 -11 -17 0 0 9 -3 10 -8 4 -8 -11 -41 -13 -58 -2 -6 3 -14 3 -18 -1 -12
-11 -86 -9 -86 2 0 6 -5 4 -10 -4 -5 -8 -10 -11 -10 -6 0 5 -7 3 -16 -4 -12
-11 -15 -11 -12 -1 2 8 -5 15 -15 16 -9 2 -15 0 -12 -4 2 -4 -11 -7 -30 -7
-19 1 -35 5 -35 9 0 5 -6 5 -12 0 -19 -12 -88 -11 -88 1 0 6 -4 5 -9 -2 -4 -8
-12 -14 -16 -14 -4 0 -12 6 -16 14 -5 7 -9 8 -9 3 0 -6 -9 -11 -20 -12 -13 -1
-18 2 -13 10 4 7 0 6 -10 -2 -14 -11 -17 -11 -17 0 0 10 -3 10 -11 2 -6 -6
-18 -9 -27 -6 -10 4 -13 2 -8 -5 5 -8 2 -10 -8 -6 -9 3 -16 10 -16 16 0 5 -5
6 -10 3 -6 -4 -7 -12 -3 -18 5 -9 3 -9 -8 -1 -8 6 -24 10 -37 8 -17 -3 -21 0
-16 8 6 10 5 10 -7 1 -11 -9 -19 -9 -26 -2 -7 7 -13 8 -17 0 -4 -5 -14 -7 -23
-4 -12 5 -14 3 -8 -8 6 -11 5 -11 -5 -2 -7 6 -19 9 -28 6 -10 -4 -13 -2 -8 5
9 15 5 15 -16 -2z m5170 -3301 c-3 -3 -9 2 -12 12 -6 14 -5 15 5 6 7 -7 10
-15 7 -18z m-7 -68 c-10 -9 -11 -8 -5 6 3 10 9 15 12 12 3 -3 0 -11 -7 -18z
m-3761 -607 c0 -5 -2 -10 -4 -10 -3 0 -8 5 -11 10 -3 6 -1 10 4 10 6 0 11 -4
11 -10z m285 -860 c-3 -5 -12 -10 -18 -10 -7 0 -6 4 3 10 19 12 23 12 15 0z
m165 -516 c0 -8 -19 -13 -24 -6 -3 5 1 9 9 9 8 0 15 -2 15 -3z m1281 -617
c-10 -9 -11 -8 -5 6 3 10 9 15 12 12 3 -3 0 -11 -7 -18z m-964 -392 c0 -8 -4
-12 -9 -9 -5 3 -6 10 -3 15 9 13 12 11 12 -6z"/>
<path d="M2725 7309 c-4 -6 -5 -12 -2 -15 2 -3 7 2 10 11 7 17 1 20 -8 4z"/>
<path d="M2665 7260 c-3 -6 1 -7 9 -4 18 7 21 14 7 14 -6 0 -13 -4 -16 -10z"/>
<path d="M2487 6429 c7 -7 15 -10 18 -7 3 3 -2 9 -12 12 -14 6 -15 5 -6 -5z"/>
<path d="M2625 5970 c-3 -5 -1 -10 4 -10 6 0 11 5 11 10 0 6 -2 10 -4 10 -3 0
-8 -4 -11 -10z"/>
<path d="M3286 5854 c-3 -8 -11 -12 -17 -8 -8 4 -9 3 -5 -4 4 -7 2 -12 -4 -12
-7 0 -10 -6 -7 -14 3 -8 -1 -20 -9 -26 -8 -7 -14 -9 -14 -4 -1 5 -7 -2 -14
-16 -8 -14 -12 -28 -10 -32 3 -5 -2 -8 -10 -8 -9 0 -16 -5 -16 -11 0 -5 -6 -7
-12 -3 -10 5 -10 4 -1 -6 10 -11 9 -16 -5 -27 -10 -9 -11 -12 -2 -7 13 7 13 5
1 -9 -7 -9 -18 -14 -24 -10 -5 3 -7 1 -3 -5 3 -6 1 -14 -5 -17 -5 -4 -8 -13
-5 -21 3 -9 0 -11 -11 -7 -13 5 -15 2 -10 -11 4 -9 3 -15 -2 -12 -5 3 -12 -6
-15 -19 -4 -14 -11 -23 -16 -20 -11 7 -20 -7 -22 -39 -2 -21 -5 -23 -18 -13
-8 6 -12 7 -8 3 4 -5 2 -16 -5 -24 -10 -13 -9 -14 3 -8 8 4 6 -1 -5 -11 -11
-10 -31 -31 -45 -48 -22 -26 -22 -28 -2 -11 12 11 22 15 22 9 0 -5 -11 -16
-25 -23 -14 -7 -25 -17 -25 -22 0 -5 -4 -6 -10 -3 -5 3 -7 0 -4 -8 3 -8 -3
-23 -14 -33 -11 -11 -18 -27 -17 -36 2 -11 -2 -15 -13 -11 -10 4 -13 2 -8 -5
4 -7 3 -12 -3 -12 -5 0 -13 -9 -16 -20 -4 -11 -10 -18 -15 -15 -4 3 -6 -3 -3
-13 3 -13 -4 -22 -22 -30 -14 -7 -23 -17 -20 -22 3 -6 1 -10 -6 -10 -8 0 -8
-4 1 -15 11 -13 10 -14 -5 -9 -13 5 -16 4 -11 -4 4 -8 0 -12 -11 -12 -15 0
-16 -2 -3 -10 13 -8 12 -10 -2 -10 -10 0 -18 -7 -18 -15 0 -8 -5 -15 -11 -15
-6 0 -8 -7 -5 -16 3 -8 2 -13 -3 -10 -5 3 -11 -4 -14 -15 -3 -12 -10 -18 -16
-14 -6 3 -9 0 -5 -8 3 -8 0 -18 -5 -22 -6 -3 -8 -11 -5 -17 4 -6 3 -9 -2 -6
-5 3 -15 0 -22 -8 -7 -8 -9 -14 -5 -14 4 -1 -3 -8 -17 -16 -16 -10 -18 -13 -6
-9 19 5 19 5 4 -12 -9 -10 -17 -22 -17 -28 0 -5 -5 -11 -13 -13 -9 -2 -8 0 2
7 8 6 10 11 4 11 -18 0 -24 -13 -12 -27 9 -11 8 -13 -3 -11 -8 2 -13 -4 -13
-14 1 -10 -3 -16 -10 -15 -6 1 -10 -6 -10 -16 2 -14 -1 -15 -11 -7 -11 9 -13
6 -11 -14 2 -14 -1 -23 -5 -20 -18 11 -30 -7 -17 -24 10 -12 10 -14 1 -8 -8 4
-13 2 -13 -4 0 -6 -4 -8 -10 -5 -5 3 -10 1 -10 -6 0 -6 -8 -18 -17 -26 -11 -9
-12 -11 -3 -7 11 6 10 2 -3 -13 -9 -11 -14 -23 -10 -27 4 -4 -1 -4 -12 0 -18
7 -18 6 -6 -9 8 -10 9 -17 3 -17 -6 0 -10 -9 -9 -20 1 -23 8 -25 26 -7 10 10
11 9 6 -4 -8 -22 14 -36 27 -18 8 11 9 11 5 -2 -3 -9 3 -23 14 -32 10 -9 19
-14 19 -10 0 4 7 -3 16 -15 9 -13 22 -21 29 -18 9 3 12 -2 10 -15 -3 -15 0
-19 11 -15 9 3 12 2 9 -4 -3 -6 1 -13 10 -16 9 -4 14 -13 11 -21 -3 -8 -2 -11
3 -8 5 3 12 -4 16 -15 3 -11 12 -20 19 -20 12 0 31 -52 27 -73 -1 -5 3 -6 9
-2 6 3 7 12 4 18 -4 7 -3 8 2 4 5 -5 9 -12 9 -15 0 -4 4 -13 9 -21 7 -11 5
-13 -8 -8 -10 4 -15 3 -11 -3 3 -6 14 -10 23 -10 15 0 15 -2 2 -10 -13 -9 -13
-10 0 -10 13 0 13 -1 0 -10 -10 -6 -11 -10 -2 -10 6 0 12 -12 12 -26 0 -21 4
-25 18 -20 14 5 14 4 -2 -9 -11 -8 -14 -15 -7 -15 7 0 9 -4 6 -10 -3 -5 0 -10
7 -10 9 0 9 -3 -2 -10 -13 -9 -13 -10 0 -10 13 0 13 -1 0 -10 -14 -9 -7 -15
14 -11 5 1 5 -4 -1 -11 -15 -19 -15 -100 0 -92 7 3 4 -1 -5 -9 -10 -8 -15 -17
-11 -21 11 -10 11 -46 0 -46 -5 0 -3 -8 4 -17 8 -10 9 -14 2 -10 -6 4 -14 3
-18 -3 -3 -5 -1 -10 4 -10 6 0 11 -4 11 -10 0 -5 -7 -7 -16 -3 -14 5 -15 3 -5
-15 9 -17 9 -22 0 -22 -7 0 -9 -3 -6 -7 4 -3 1 -13 -6 -21 -10 -13 -9 -15 3
-8 8 4 7 1 -3 -7 -10 -8 -16 -21 -15 -28 2 -8 -2 -13 -9 -12 -8 2 -10 -4 -6
-13 4 -11 -3 -24 -18 -36 -13 -11 -18 -17 -11 -13 11 6 11 3 1 -13 -7 -12 -16
-19 -20 -16 -4 2 -10 -7 -13 -21 -4 -14 -12 -24 -19 -22 -7 1 -12 -8 -11 -19
0 -16 -4 -20 -14 -16 -10 3 -13 1 -8 -6 4 -7 2 -12 -4 -12 -14 0 -67 -40 -54
-40 5 -1 -3 -8 -18 -16 -16 -8 -28 -19 -28 -24 0 -13 -56 -41 -65 -32 -5 4 -6
0 -2 -9 4 -13 -1 -16 -24 -14 -16 1 -26 -1 -23 -6 5 -9 -9 -13 -33 -10 -7 1
-13 -3 -13 -9 0 -6 -4 -9 -9 -5 -5 3 -12 1 -16 -5 -9 -15 -27 -12 -20 3 4 6
-1 3 -9 -7 -11 -14 -16 -15 -16 -6 0 9 -5 7 -15 -6 -9 -12 -14 -14 -15 -6 0
10 -4 10 -16 -2 -20 -20 -30 -21 -14 -1 11 13 10 14 -4 9 -9 -3 -16 -11 -16
-17 0 -5 -9 -2 -20 8 -19 17 -20 17 -14 2 5 -15 3 -16 -19 -8 -18 7 -27 7 -31
-2 -3 -9 -5 -9 -5 1 -1 6 -6 12 -12 12 -5 0 -7 -6 -4 -12 4 -7 0 -5 -8 5 -14
17 -15 17 -21 0 -5 -13 -9 -14 -15 -5 -11 18 -71 34 -71 19 0 -7 -4 -6 -10 3
-9 13 -10 13 -10 0 -1 -8 -6 -4 -12 10 -9 23 -11 24 -17 6 -7 -18 -8 -18 -14
-2 -4 9 -11 15 -16 12 -5 -3 -12 1 -15 9 -3 8 -9 15 -13 14 -16 -2 -53 14 -53
23 0 5 -5 6 -10 3 -6 -4 -17 -1 -25 5 -8 7 -15 9 -15 6 0 -4 -10 2 -22 14 -12
11 -26 20 -32 20 -5 0 -6 3 -3 6 4 4 15 1 24 -7 16 -13 17 -12 4 4 -7 9 -20
17 -28 17 -18 0 -44 25 -36 34 4 3 -1 6 -11 6 -9 0 -14 5 -11 10 6 9 -8 14
-28 11 -5 -1 -6 3 -3 8 4 5 0 12 -6 14 -10 4 -10 6 0 6 10 1 10 4 -2 16 -8 8
-19 15 -24 15 -6 0 -9 8 -8 17 3 18 -15 44 -25 37 -3 -2 -5 8 -3 21 1 14 -1
23 -6 20 -4 -2 -16 5 -26 18 -16 18 -16 19 -1 8 24 -19 22 2 -3 24 -17 16 -20
16 -26 2 -3 -9 -12 -13 -21 -10 -10 4 -14 2 -10 -4 4 -6 -3 -9 -18 -7 -14 1
-25 -2 -25 -8 0 -6 -7 -7 -16 -4 -10 4 -13 2 -8 -6 5 -8 2 -9 -10 -5 -10 4
-15 3 -11 -3 6 -9 2 -12 -27 -14 -7 -1 -16 -5 -20 -11 -4 -5 -12 -11 -18 -11
-5 -1 -15 -2 -21 -3 -5 0 -7 -5 -4 -11 3 -5 1 -10 -4 -10 -6 0 -11 5 -11 10 0
6 -5 10 -11 10 -5 0 -8 -4 -5 -8 2 -4 -4 -14 -16 -21 -11 -7 -18 -8 -14 -3 3
5 -1 9 -9 9 -8 0 -11 -5 -8 -10 4 -6 -1 -8 -11 -4 -14 6 -17 3 -12 -9 4 -12 2
-15 -9 -11 -8 4 -21 0 -29 -8 -11 -11 -16 -12 -19 -2 -4 9 -6 9 -6 0 -1 -7 -6
-13 -13 -13 -6 0 -23 -10 -36 -22 -14 -13 -22 -17 -18 -10 10 17 -10 15 -28
-4 -11 -11 -16 -12 -16 -3 0 7 -7 5 -16 -7 -8 -10 -12 -13 -8 -5 5 10 3 12 -5
7 -7 -5 -10 -15 -6 -23 4 -12 2 -13 -8 -5 -10 9 -17 8 -27 -1 -10 -10 -12 -9
-6 3 7 13 6 13 -6 0 -13 -15 -31 -22 -55 -23 -7 0 -13 -4 -13 -9 0 -5 -4 -7
-9 -3 -5 3 -13 0 -17 -6 -4 -8 -9 -7 -15 2 -7 11 -9 10 -9 -3 0 -17 -10 -22
-39 -19 -7 2 -10 -2 -7 -8 4 -5 2 -12 -4 -16 -5 -3 -10 -1 -10 5 0 7 -7 5 -16
-4 -8 -9 -21 -13 -27 -9 -7 4 -8 0 -3 -12 5 -15 4 -16 -8 -6 -11 9 -17 8 -29
-4 -9 -8 -25 -15 -36 -15 -11 0 -23 -5 -27 -12 -5 -7 -3 -8 6 -3 9 6 11 4 5
-4 -5 -9 -11 -9 -17 -3 -12 12 -40 4 -32 -9 3 -5 -3 -6 -12 -2 -13 5 -15 3 -9
-8 7 -11 5 -11 -10 1 -15 12 -17 12 -10 1 6 -11 4 -13 -8 -8 -10 4 -20 0 -26
-11 -8 -14 -11 -14 -11 -2 0 12 -3 11 -11 -2 -5 -10 -19 -18 -30 -18 -14 0
-18 -4 -13 -12 5 -8 2 -8 -10 1 -13 11 -16 11 -14 1 2 -7 -3 -15 -11 -18 -9
-3 -11 0 -7 9 4 8 1 6 -8 -5 -8 -10 -19 -15 -25 -11 -6 3 -11 2 -11 -4 0 -5
-11 -8 -25 -5 -19 3 -23 1 -19 -11 4 -9 3 -15 -2 -14 -5 1 -18 1 -29 0 -17 -1
-18 -3 -5 -11 8 -5 10 -10 5 -10 -6 0 -17 6 -24 13 -9 7 -11 7 -8 1 4 -7 0
-15 -9 -18 -10 -4 -13 -2 -8 7 10 16 -25 -10 -49 -38 -10 -11 -16 -15 -13 -8
4 6 2 14 -2 17 -7 4 -8 -13 -3 -57 1 -5 7 -5 14 -1 9 6 9 4 -1 -8 -9 -11 -10
-18 -2 -23 6 -3 7 -11 4 -17 -4 -7 -2 -8 4 -4 11 6 16 -6 13 -26 0 -5 6 -8 14
-8 8 0 15 -9 15 -21 0 -11 4 -17 10 -14 5 3 7 0 4 -8 -3 -8 2 -21 10 -30 9 -9
16 -20 16 -26 0 -6 5 -11 10 -11 6 0 10 -7 10 -15 0 -8 6 -15 13 -15 8 0 7 -4
-3 -10 -13 -8 -12 -10 2 -10 10 0 17 -6 15 -12 -1 -8 6 -12 18 -10 11 2 16 -1
10 -5 -17 -13 -17 -36 -1 -30 9 4 18 1 22 -5 4 -7 3 -8 -4 -4 -19 11 -14 -5 6
-23 19 -16 36 -50 34 -63 -1 -4 6 -4 15 -1 13 5 15 2 10 -12 -6 -15 -5 -16 7
-6 11 9 16 9 22 0 4 -8 3 -9 -4 -5 -7 4 -12 3 -12 -3 0 -12 29 -41 41 -41 6 0
8 -4 5 -9 -8 -13 21 -34 35 -26 8 6 8 2 0 -13 -12 -22 0 -39 19 -27 5 3 10 1
10 -5 0 -6 5 -8 13 -4 8 6 8 3 -1 -9 -12 -14 -11 -17 11 -22 14 -4 28 -14 32
-22 4 -12 2 -13 -8 -7 -7 5 -5 2 5 -7 9 -9 14 -20 10 -25 -4 -5 -1 -4 7 3 11
9 17 9 28 -3 8 -7 11 -19 7 -25 -4 -8 -3 -9 4 -5 7 4 12 2 12 -3 0 -6 9 -11
20 -11 14 0 20 -7 20 -21 0 -16 5 -20 19 -16 15 4 18 0 16 -20 -1 -16 1 -21 8
-14 5 5 16 7 24 4 12 -5 12 -7 1 -15 -9 -7 -7 -8 9 -5 12 3 21 1 20 -3 -3 -10
50 -59 57 -52 3 3 6 0 6 -6 0 -7 6 -12 14 -12 8 0 16 -6 19 -14 3 -7 19 -16
37 -19 17 -4 29 -11 25 -17 -3 -5 1 -10 9 -10 9 0 16 -4 16 -10 0 -5 5 -10 11
-10 5 0 7 6 3 13 -4 7 -3 9 2 4 5 -5 9 -14 9 -20 0 -7 9 -13 20 -15 11 -2 27
-11 36 -19 14 -11 18 -12 23 -1 3 7 4 3 2 -8 -2 -15 1 -21 13 -20 9 0 15 -5
13 -12 -1 -8 2 -11 8 -7 6 3 8 10 6 14 -3 4 1 8 8 8 8 0 12 -6 9 -13 -2 -6 1
-15 8 -20 8 -4 10 -3 5 4 -4 7 -3 12 2 12 6 0 12 -7 16 -15 3 -8 9 -14 13 -13
18 5 53 -14 46 -25 -4 -7 2 -5 12 3 11 9 16 10 11 2 -5 -8 2 -12 24 -12 18 0
29 -4 25 -10 -6 -10 3 -13 37 -13 10 0 15 -4 11 -10 -4 -6 0 -8 10 -4 9 3 18
0 21 -8 3 -8 12 -12 19 -9 8 3 21 -1 29 -9 11 -11 19 -12 33 -5 12 7 16 7 11
0 -12 -19 60 -37 82 -19 9 7 11 6 6 -8 -5 -13 -4 -16 4 -11 7 4 12 3 12 -2 0
-6 18 -9 41 -8 23 2 47 -3 54 -10 9 -10 15 -10 24 -1 8 8 11 8 11 -1 0 -7 6
-12 13 -11 23 3 38 -1 33 -9 -2 -4 4 -8 14 -8 14 0 16 3 8 13 -8 10 -7 12 6 7
9 -3 16 -10 16 -15 0 -5 5 -9 11 -9 5 0 7 5 4 10 -3 6 -1 10 4 10 6 0 11 -4
11 -9 0 -5 11 -11 25 -13 14 -3 25 -2 25 2 0 9 62 0 78 -13 9 -7 11 -5 6 9 -7
18 -6 18 12 2 14 -12 24 -14 37 -7 11 7 17 7 17 -1 0 -7 6 -7 21 1 15 8 19 8
15 0 -5 -7 4 -11 23 -11 17 0 31 5 31 12 0 6 7 3 16 -8 8 -10 13 -14 10 -7 -4
6 -2 14 4 18 5 3 10 1 10 -4 0 -15 27 -14 33 2 4 9 6 9 6 0 1 -7 6 -13 12 -13
5 0 7 5 3 12 -5 7 -3 8 6 3 18 -11 60 -13 54 -3 -3 4 26 8 63 8 41 0 74 5 82
13 11 10 13 10 7 0 -9 -16 6 -17 22 -1 9 9 12 9 12 -2 1 -12 3 -11 10 2 6 10
18 14 30 11 11 -3 28 1 37 8 12 10 14 10 9 2 -11 -19 2 -16 34 7 21 15 31 17
36 9 5 -8 3 -9 -6 -4 -9 5 -11 4 -6 -4 4 -6 13 -8 19 -4 7 4 19 8 27 8 8 0 14
8 14 17 -1 10 4 14 12 11 8 -3 11 -10 8 -15 -4 -6 3 -5 16 2 12 6 28 9 36 6 7
-3 13 0 11 6 -1 6 4 13 12 16 9 3 11 0 7 -9 -4 -8 -1 -6 7 4 11 14 16 15 20 5
4 -10 6 -10 6 0 1 6 8 12 17 12 8 0 12 5 9 10 -3 6 -1 10 4 10 6 0 11 -5 11
-11 0 -8 6 -7 17 2 14 12 16 12 9 -1 -4 -8 1 -4 12 9 15 18 21 21 25 10 4 -12
6 -12 6 0 1 10 4 11 15 2 11 -9 14 -8 12 6 0 10 5 17 13 15 7 -1 20 5 28 15
14 17 14 17 8 -2 -5 -17 -2 -16 17 5 13 14 19 20 14 13 -5 -8 -4 -13 3 -13 6
0 14 7 18 16 3 8 12 13 19 10 9 -3 14 1 14 12 0 15 2 15 10 2 9 -14 15 -7 11
14 -1 5 6 3 15 -5 16 -12 17 -12 12 1 -4 12 1 16 21 18 14 1 28 7 29 12 2 6
10 10 17 10 8 0 20 7 29 15 8 9 18 16 21 15 21 -1 25 1 19 12 -5 8 -2 9 10 5
9 -4 15 -3 13 1 -3 4 1 12 8 19 11 10 15 10 18 0 3 -7 6 -4 6 6 1 10 6 15 11
12 6 -3 10 -1 10 4 0 6 6 11 14 11 8 0 18 10 21 21 5 15 9 18 15 9 5 -9 12 -6
23 11 9 12 14 26 11 31 -3 4 1 5 9 2 8 -3 21 2 30 10 8 8 17 12 21 9 3 -4 6 1
6 10 0 11 5 14 17 10 9 -4 14 -2 11 3 -4 5 1 18 9 29 15 19 15 19 8 -5 -7 -24
-7 -24 8 -5 8 11 13 23 10 28 -2 4 1 6 8 5 7 -2 13 3 14 11 0 8 7 15 16 17 19
2 79 53 79 66 0 9 37 48 46 48 3 0 2 -5 -2 -12 -4 -7 -3 -8 5 -4 6 4 9 12 5
17 -8 14 16 40 29 32 6 -4 8 0 4 10 -4 10 -2 16 6 14 7 -1 11 6 9 17 -2 11 1
16 10 13 7 -2 12 -10 10 -16 -1 -7 2 -10 8 -6 6 3 8 11 4 16 -3 5 0 16 6 24 6
8 9 19 5 24 -4 7 1 8 12 4 10 -3 15 -3 11 2 -4 4 6 18 23 32 25 21 28 28 17
41 -10 12 -10 14 0 8 17 -10 38 4 21 15 -11 7 -11 9 -1 9 7 0 10 4 7 10 -4 6
1 7 11 3 14 -5 16 -3 11 11 -4 10 -3 15 3 11 6 -3 10 -1 10 5 0 6 5 8 13 4 8
-5 7 -2 -2 9 -12 15 -12 17 1 12 9 -4 15 0 16 10 1 8 3 22 4 30 1 10 5 12 13
5 9 -8 11 -3 7 17 -4 21 -2 25 11 20 11 -4 14 0 13 18 -2 17 1 22 12 17 9 -3
13 -1 9 5 -9 14 33 94 45 87 4 -3 8 -1 8 5 0 5 -6 12 -12 15 -9 3 -6 11 9 24
17 15 19 22 10 31 -9 9 -8 11 4 6 10 -4 20 -2 24 4 3 6 1 11 -5 11 -6 0 -8 5
-5 10 4 6 10 8 14 6 4 -3 8 1 8 9 0 8 -5 12 -11 9 -6 -3 -3 1 7 9 14 11 15 16
5 20 -9 4 -8 6 3 6 20 1 33 28 16 34 -9 3 -9 8 2 20 7 9 18 14 25 10 6 -4 4 2
-4 12 -9 11 -10 16 -2 11 8 -5 12 -1 12 13 0 10 -6 22 -12 24 -7 3 -3 6 9 6
18 1 22 6 19 23 -1 12 3 28 10 36 7 7 11 19 8 27 -4 8 -1 15 6 15 9 0 9 4 -1
17 -8 9 -9 14 -3 10 7 -4 15 0 18 9 4 10 2 13 -7 8 -9 -5 -9 -4 1 7 14 16 16
33 2 24 -6 -3 -7 1 -4 9 3 9 9 14 13 11 4 -2 8 2 8 10 0 8 -4 12 -8 9 -5 -2
-3 9 2 26 6 16 14 30 18 30 4 0 5 14 3 31 -4 25 -2 30 9 24 11 -7 10 -4 -1 10
-12 15 -12 17 -1 10 11 -6 13 -4 8 7 -3 9 0 21 6 28 9 9 9 11 1 7 -7 -4 -14 0
-17 8 -4 9 -1 12 9 8 10 -4 12 0 7 13 -5 12 -3 15 6 9 8 -5 7 2 -3 17 -14 22
-14 26 1 48 11 15 12 20 3 15 -10 -6 -12 -4 -6 11 4 10 10 30 12 44 3 19 2 22
-6 10 -8 -12 -9 -9 -6 10 3 14 5 29 5 33 1 5 6 5 12 1 8 -4 7 0 -1 15 -6 12
-16 18 -22 15 -7 -4 -8 -3 -4 5 4 6 11 9 16 6 16 -10 17 20 1 39 -9 11 -10 16
-3 12 7 -4 12 -1 12 8 0 9 -6 16 -12 16 -9 0 -8 3 2 10 12 8 12 10 -3 16 -17
6 -14 24 4 24 6 0 7 -5 3 -12 -5 -7 -3 -8 6 -3 10 6 7 12 -11 27 -20 15 -21
17 -4 11 18 -6 19 -5 5 12 -9 11 -10 16 -2 11 6 -4 12 -2 12 3 0 6 -4 11 -10
11 -5 0 -10 5 -10 11 0 5 4 8 8 5 5 -3 9 1 9 9 0 8 -7 15 -16 15 -11 0 -11 3
5 16 13 10 14 14 4 11 -10 -3 -16 2 -16 14 0 11 4 19 8 19 5 0 4 9 -2 20 -8
15 -8 20 1 20 8 0 8 4 -1 15 -7 8 -9 15 -4 15 5 0 4 4 -2 8 -7 4 -13 23 -15
42 -2 19 -7 41 -13 48 -13 19 -15 52 -2 52 6 0 6 4 -1 11 -6 6 -9 18 -6 27 5
11 2 13 -8 7 -11 -6 -12 -5 -2 5 10 11 9 16 -5 27 -9 8 -11 12 -4 8 6 -3 12
-1 12 4 0 6 -4 11 -10 11 -5 0 -6 8 -3 17 5 12 2 15 -9 10 -12 -4 -14 -1 -11
14 3 10 -1 27 -8 36 -10 12 -10 14 -1 9 6 -4 12 -3 12 3 0 5 -4 11 -9 13 -5 2
-11 14 -13 28 -1 14 -9 31 -16 39 -7 7 -11 20 -8 27 3 8 1 14 -4 14 -6 0 -10
11 -10 25 0 14 -6 25 -12 25 -9 0 -8 4 2 10 13 8 12 10 -3 10 -10 0 -15 5 -12
10 3 6 1 10 -4 10 -6 0 -10 6 -8 13 1 6 -4 11 -10 10 -7 -2 -13 2 -13 7 0 6 4
10 8 10 5 0 9 7 9 15 0 8 -2 13 -5 11 -2 -3 -10 1 -17 7 -9 9 -10 16 -2 25 6
7 6 12 1 11 -5 -1 -16 -1 -24 0 -13 1 -13 2 0 11 10 6 11 10 3 10 -7 0 -13 7
-13 15 0 8 -8 15 -17 15 -15 0 -16 2 -3 10 13 8 13 10 -2 10 -10 0 -15 7 -14
17 2 10 -8 26 -21 36 -13 11 -22 22 -18 25 3 3 12 -3 21 -14 14 -18 15 -18 4
4 -6 12 -15 22 -20 22 -6 0 -10 7 -10 15 0 9 -9 15 -22 15 -13 0 -18 4 -13 8
6 4 11 13 13 21 2 11 0 12 -11 3 -12 -10 -14 -7 -11 20 2 17 1 28 -3 25 -3 -4
-12 1 -20 11 -8 9 -12 11 -8 5 3 -7 2 -13 -4 -13 -5 0 -8 14 -6 31 3 24 1 29
-8 20 -16 -16 -27 -14 -21 4 4 8 -1 17 -10 21 -9 3 -16 15 -16 26 0 17 -3 18
-14 9 -12 -10 -13 -9 -9 7 3 14 -2 22 -17 27 -18 6 -20 9 -9 17 10 7 8 9 -8 5
-15 -3 -20 -1 -16 8 2 8 -4 22 -15 33 -11 11 -17 24 -14 28 4 5 -1 2 -11 -5
-15 -12 -17 -12 -12 1 3 8 -2 21 -12 29 -17 13 -17 13 -3 -6 14 -19 14 -19 -3
-6 -13 10 -15 17 -6 27 8 10 6 12 -10 9 -19 -4 -26 6 -22 29 1 5 -5 3 -14 -4
-13 -11 -15 -10 -9 4 4 9 2 16 -4 14 -5 -2 -9 0 -9 4 3 12 -42 40 -52 33 -6
-3 -8 4 -6 15 3 18 1 19 -18 8 -20 -10 -21 -10 -8 5 11 15 11 17 -2 17 -8 0
-22 10 -31 23 -14 20 -15 20 -10 2 3 -13 -1 -10 -11 7 -8 15 -29 35 -45 43
-17 9 -30 20 -30 26 0 6 -9 9 -20 6 -11 -3 -18 -1 -15 3 3 5 1 11 -4 14 -5 3
-12 -1 -15 -10z m398 -330 c3 -8 2 -12 -4 -9 -6 3 -10 10 -10 16 0 14 7 11 14
-7z m-914 -458 c0 -3 -4 -8 -10 -11 -5 -3 -10 -1 -10 4 0 6 5 11 10 11 6 0 10
-2 10 -4z m-210 -1555 c0 -5 -7 -12 -16 -15 -14 -5 -15 -4 -4 9 14 17 20 19
20 6z"/>
<path d="M6697 5053 c-10 -9 -9 -23 1 -23 5 0 9 7 9 15 0 17 -1 18 -10 8z"/>
<path d="M4196 4521 c-3 -5 1 -11 9 -14 9 -4 12 -1 8 9 -6 16 -10 17 -17 5z"/>
<path d="M4025 3130 c-3 -5 -1 -10 4 -10 6 0 11 5 11 10 0 6 -2 10 -4 10 -3 0
-8 -4 -11 -10z"/>
<path d="M7516 2552 c-3 -5 1 -9 9 -9 8 0 12 4 9 9 -3 4 -7 8 -9 8 -2 0 -6 -4
-9 -8z"/>
</g>
</svg>
